<?xml version="1.0" encoding="UTF-8" standalone="no"?>
<!-- Created with Inkscape (http://www.inkscape.org/) -->

<svg
   xmlns:dc="http://purl.org/dc/elements/1.1/"
   xmlns:cc="http://creativecommons.org/ns#"
   xmlns:rdf="http://www.w3.org/1999/02/22-rdf-syntax-ns#"
   xmlns:svg="http://www.w3.org/2000/svg"
   xmlns="http://www.w3.org/2000/svg"
   xmlns:xlink="http://www.w3.org/1999/xlink"
   xmlns:sodipodi="http://sodipodi.sourceforge.net/DTD/sodipodi-0.dtd"
   xmlns:inkscape="http://www.inkscape.org/namespaces/inkscape"
   id="svg2"
   version="1.1"
   inkscape:version="0.48.5 r10040"
   width="1000"
   height="1000"
   xml:space="preserve"
   sodipodi:docname="camera.svg"
   inkscape:export-filename="/home/fradelg/dev/phd-thesis/cover.png"
   inkscape:export-xdpi="90"
   inkscape:export-ydpi="90"><metadata
     id="metadata8"><rdf:RDF><cc:Work
         rdf:about=""><dc:format>image/svg+xml</dc:format><dc:type
           rdf:resource="http://purl.org/dc/dcmitype/StillImage" /><dc:title></dc:title></cc:Work></rdf:RDF></metadata><defs
     id="defs6"><clipPath
       clipPathUnits="userSpaceOnUse"
       id="clipPath16"><path
         d="M 0,800 800,800 800,0 0,0 0,800 z"
         id="path18" /></clipPath><clipPath
       clipPathUnits="userSpaceOnUse"
       id="clipPath24"><path
         d="M 0,800 800,800 800,0 0,0 0,800 z"
         id="path26" /></clipPath><clipPath
       clipPathUnits="userSpaceOnUse"
       id="clipPath28"><path
         d="M 800,0 0,0 0,800 800,800 800,0 z"
         id="path30" /></clipPath><radialGradient
       fx="0"
       fy="0"
       cx="0"
       cy="0"
       r="1"
       gradientUnits="userSpaceOnUse"
       gradientTransform="matrix(-123.44486,861.29211,856.98047,122.8269,462.50879,2.9150391)"
       spreadMethod="pad"
       id="radialGradient32"><stop
         style="stop-opacity:1;stop-color:#ffffff"
         offset="0"
         id="stop34" /><stop
         style="stop-opacity:1;stop-color:#dadada"
         offset="0.897561"
         id="stop36" /><stop
         style="stop-opacity:1;stop-color:#b2b2b2"
         offset="1"
         id="stop38" /></radialGradient><clipPath
       clipPathUnits="userSpaceOnUse"
       id="clipPath66"><path
         d="M 103.957,203.764 C 103.957,191.57 236.5,181.686 400,181.686 l 0,0 c 163.5,0 296.043,9.884 296.043,22.078 l 0,0 c 0,12.193 -132.543,22.077 -296.043,22.077 l 0,0 c -163.5,0 -296.043,-9.884 -296.043,-22.077"
         id="path68" /></clipPath><clipPath
       clipPathUnits="userSpaceOnUse"
       id="clipPath74"><path
         d="m -32768,32767 65535,0 0,-65535 -65535,0 0,65535 z"
         id="path76" /></clipPath><radialGradient
       fx="0"
       fy="0"
       cx="0"
       cy="0"
       r="1"
       gradientUnits="userSpaceOnUse"
       gradientTransform="matrix(259.37189,0,0,-15.831388,400,203.76367)"
       spreadMethod="pad"
       id="radialGradient78"><stop
         style="stop-opacity:1;stop-color:#ffffff"
         offset="0"
         id="stop80" /><stop
         style="stop-opacity:0;stop-color:#ffffff"
         offset="1"
         id="stop82" /></radialGradient><mask
       maskUnits="userSpaceOnUse"
       x="0"
       y="0"
       width="1"
       height="1"
       id="mask84"><g
         id="g86"><g
           clip-path="url(#clipPath74)"
           id="g88"><g
             id="g90"><g
               id="g92"><path
                 d="m -32768,32767 65535,0 0,-65535 -65535,0 0,65535 z"
                 style="fill:url(#radialGradient78);stroke:none"
                 id="path94" /></g></g></g></g></mask><radialGradient
       fx="0"
       fy="0"
       cx="0"
       cy="0"
       r="1"
       gradientUnits="userSpaceOnUse"
       gradientTransform="matrix(259.37189,0,0,-15.831388,400,203.76367)"
       spreadMethod="pad"
       id="radialGradient100"><stop
         style="stop-opacity:1;stop-color:#9a9a99"
         offset="0"
         id="stop102" /><stop
         style="stop-opacity:1;stop-color:#ffffff"
         offset="1"
         id="stop104" /></radialGradient><clipPath
       clipPathUnits="userSpaceOnUse"
       id="clipPath112"><path
         d="M 0,800 800,800 800,0 0,0 0,800 z"
         id="path114" /></clipPath><radialGradient
       inkscape:collect="always"
       xlink:href="#radialGradient32"
       id="radialGradient3209"
       gradientUnits="userSpaceOnUse"
       gradientTransform="matrix(-123.44486,861.29211,856.98047,122.8269,462.50879,2.9150391)"
       spreadMethod="pad"
       cx="0"
       cy="0"
       fx="0"
       fy="0"
       r="1" /></defs><sodipodi:namedview
     pagecolor="#ffffff"
     bordercolor="#666666"
     borderopacity="1"
     objecttolerance="10"
     gridtolerance="10"
     guidetolerance="10"
     inkscape:pageopacity="0"
     inkscape:pageshadow="2"
     inkscape:window-width="1440"
     inkscape:window-height="875"
     id="namedview4"
     showgrid="false"
     inkscape:zoom="0.6675088"
     inkscape:cx="505.66103"
     inkscape:cy="581.09875"
     inkscape:window-x="0"
     inkscape:window-y="0"
     inkscape:window-maximized="1"
     inkscape:current-layer="g10" /><g
     id="g10"
     inkscape:groupmode="layer"
     inkscape:label="11"
     transform="matrix(1.25,0,0,-1.25,0,1000)"><g
       id="g20"><g
         id="g22" /><g
         id="g40"><g
           clip-path="url(#clipPath24)"
           id="g42"
           style="opacity:0.69999701"><g
             id="g44"><g
               clip-path="url(#clipPath28)"
               id="g46"><g
                 id="g48"><g
                   id="g50"><path
                     d="M 800,0 0,0 0,800 800,800 800,0 z"
                     style="fill:url(#radialGradient3209);stroke:none"
                     id="path52"
                     inkscape:connector-curvature="0" /></g></g></g></g></g></g></g><path
       inkscape:connector-curvature="0"
       id="path56"
       style="fill:#000000;fill-opacity:1;fill-rule:nonzero;stroke:none"
       d="m 442.9687,387.3398 c -3.238,16.377 -9.808,31.251 -19.453,44.838 -13.95,19.65 -32.204,35.216 -54.702,44.121 -15.908,6.298 -33.007,8.89 -50.136,9.769 7.666,2.252 15.358,4.409 23.079,6.463 14.035,3.733 28.359,7.554 42.824,9.184 3.864,0.436 7.693,0.772 10.946,-0.241 3.726,-1.161 7.495,-2.179 11.216,-3.352 12.357,-3.892 24.202,-9.132 35.119,-16.136 15.426,-9.897 27.272,-23.342 36.441,-39.11 9.434,-16.221 16.607,-34.216 18.594,-52.986 0.739,-6.983 0.667,-14.04 -0.136,-21.013 -0.525,-4.569 -1.559,-10.867 -3.279,-14.379 -4.625,-9.439 -12.857,-17.548 -19.9,-25.173 -11.198,-12.124 -22.873,-24.122 -35.105,-35.363 0.454,1.784 0.868,3.524 1.277,5.136 3.344,13.147 5.215,26.718 6.079,40.242 1.025,16.03 0.254,32.229 -2.864,48 m -175.867,182.001 c -0.172,2.375 -0.563,4.712 -0.987,7.061 -0.248,1.375 -0.343,2.725 -0.398,4.117 -0.008,0.198 0.044,0.402 0.04,0.426 0.679,1.455 2.732,2.527 4.501,3.225 6.74,2.659 14.381,3.16 21.545,3.393 6.265,0.205 12.896,0.225 19.034,-1.226 8.823,-2.087 4.554,-11.777 2.449,-18.052 -4.531,0.175 -9.064,0.338 -13.596,0.479 -10.858,0.34 -21.724,0.577 -32.588,0.577 m 355.651,-79.722 c -0.302,9.34 -0.851,18.692 -2.105,27.956 -0.741,5.47 -1.521,11.5 -4.274,16.393 -3.832,6.812 -14.585,9.296 -21.454,11.158 -13.561,3.675 -27.648,5.517 -41.573,7.187 -17.258,2.069 -34.586,3.29 -51.903,4.71 -4.631,10.406 -0.965,24.367 0.177,34.904 0.861,7.938 -0.156,15.623 -7.034,20.606 -6.23,4.515 -14.256,5.403 -21.732,5.657 -21.382,0.726 -43.472,-1.641 -63.553,-9.264 -19.642,-7.456 -35.67,-19.758 -48.277,-36.508 -1.631,-2.166 -3.162,-4.377 -4.621,-6.623 -6.579,0.97 -13.341,1.086 -19.969,1.44 -4.998,0.266 -9.999,0.5 -15.001,0.717 -0.064,0.36 -0.188,0.706 -0.357,1.033 2.624,8.795 4.886,19.208 -5.677,23.467 -6.735,2.717 -14.944,2.52 -22.078,2.418 -8.613,-0.123 -18.029,-0.745 -26.058,-4.121 -3.099,-1.303 -6.186,-3.11 -7.814,-6.184 -2.417,-4.564 -0.156,-10.298 0.366,-15.232 -6.992,0.011 -14.577,0.237 -21.272,-1.576 -17.282,-4.68 -32.187,-17.88 -42.863,-31.753 -6.67,-8.667 -12.186,-18.883 -13.533,-29.847 -2.239,-18.228 -2.863,-36.743 -3.68,-55.074 -1.135,-25.419 -1.847,-50.893 -1.415,-76.339 0.17,-10.01 0.497,-20.05 1.553,-30.009 0.56,-5.28 0.754,-13.843 4.573,-18.092 5.166,-5.746 12.927,-9.651 20.748,-9.79 0.245,-0.005 0.473,0.014 0.693,0.048 1.486,-5.984 3.274,-11.855 5.252,-17.498 7.974,-22.742 21.443,-44.238 42.311,-57.118 25.329,-15.632 59.656,-15.018 86.74,-4.411 11.372,4.454 21.6,11.098 30.274,19.428 22.082,22.746 27.901,54.823 27.901,54.823 0,0 -7.196,-18.307 -26.201,-42.449 -18.527,-22.443 -46.339,-32.025 -74.868,-31.96 -26.982,0.063 -50.276,13.291 -65.259,35.484 -12.157,18.006 -18.779,39.573 -21.893,60.926 -1.986,13.611 -1.323,27.134 0.961,40.673 3.351,19.872 10.09,40.105 22.971,55.91 7.169,8.798 16.177,15.712 26.571,20.273 12.648,5.551 26.891,6.589 40.505,5.532 27.083,-2.102 56.58,-11.06 73.341,-33.871 16.217,-24.938 23.743,-47.988 23.743,-47.988 0,0 -1.789,10.984 -2.868,16.429 -1.634,8.247 -4.166,16.267 -7.802,23.857 -10.57,22.062 -31.167,36.009 -54.101,42.982 -23.256,7.071 -50.142,9.426 -73.221,0.637 2.776,7.352 4.068,15.095 4.362,23.132 0.22,5.986 0.092,11.989 -1.629,17.766 -1.559,5.23 -2.608,10.44 -6.288,15.104 2.172,-12.433 0.761,-25.953 0.676,-31.68 -0.152,-10.25 -2.215,-20.062 -7.32,-29.014 -0.024,-0.041 -0.041,-0.082 -0.062,-0.122 -0.796,-0.452 -1.585,-0.919 -2.368,-1.403 -19.001,-11.763 -30.901,-31.688 -37.824,-52.452 -5.201,-15.598 -7.936,-32.348 -8.219,-48.79 -0.153,-8.89 0.875,-17.987 2.676,-26.932 -5.218,0.383 -10.276,3.109 -13.885,6.752 -0.279,0.283 -0.457,0.566 -0.622,0.894 0.094,-0.169 -0.34,0.882 -0.415,1.108 -0.434,1.302 -0.74,2.646 -1.018,3.989 -1.629,7.858 -1.973,16.301 -2.33,24.555 -1.075,24.769 -0.456,49.633 0.419,74.397 0.747,21.162 1.701,42.363 3.589,63.457 0.131,1.477 0.274,2.954 0.428,4.428 0.066,0.617 0.135,1.233 0.206,1.849 0.022,0.191 0.116,0.92 0.161,1.274 0.523,3.613 1.816,7.051 3.303,10.376 7.601,17.009 22.181,31.548 38.699,39.953 8.769,4.463 15.602,4.583 25.303,4.793 12.153,0.263 24.32,0.007 36.468,-0.316 19.6,-0.52 39.437,-0.807 58.981,-2.694 -9.696,-17.055 -24.477,-53.548 -24.477,-53.548 0,0 21.812,36.275 33.378,54.426 9.39,14.735 21.307,27.291 36.646,35.851 19.118,10.669 41.025,14.46 62.667,15.146 8.264,0.262 17.027,0.687 25.021,-1.786 1.773,-0.547 3.404,-1.363 4.822,-2.447 -14.434,-3.858 -25.748,-17.074 -30.284,-30.979 -5.176,-15.869 3.082,-30.342 13.327,-41.908 5.29,-5.971 11.096,-11.461 16.272,-17.536 5.012,-5.883 8.321,-12.385 10.619,-19.739 4.564,-14.61 13.686,-56.773 13.686,-56.773 0,0 0.044,57.734 -17.974,80.216 -9.536,11.9 -23.589,21.618 -28.746,36.5 -5.668,16.353 6.038,34.309 20.459,41.615 2.144,1.087 4.519,1.806 6.913,2.166 0.536,-3.024 -0.073,-6.658 -0.361,-9.31 -0.961,-8.869 -2.704,-17.135 -1.851,-26.123 0.679,-7.16 3.04,-13.699 8.084,-18.935 6.599,-6.849 16.58,-10.411 25.045,-14.242 11.146,-5.044 34.705,-11.609 34.705,-11.609 0,0 -36.747,14.289 -52.724,29.292 23.477,-1.878 47,-3.607 70.203,-7.796 10.187,-1.84 22.275,-3.631 30.982,-9.681 1.288,-0.895 1.708,-1.849 2.189,-3.153 0.95,-2.571 1.503,-5.291 1.993,-7.98 3.445,-18.97 3.086,-39.487 2.864,-58.921 -0.3,-26.207 -1.799,-52.43 -4.445,-78.505 -2.198,-21.667 -4.844,-43.781 -11.069,-64.719 -0.985,-3.315 -2.279,-7.063 -3.514,-9.792 -0.574,-1.271 -1.215,-2.513 -1.919,-3.716 -0.311,-0.529 -0.645,-1.043 -0.991,-1.548 -0.68,-0.992 -0.053,-0.178 -0.975,-1.204 -4.869,-5.416 -13.231,-8.094 -20.341,-10.114 -1.109,-0.315 -2.227,-0.608 -3.343,-0.898 1.125,6.581 1.177,13.513 1.414,20.054 0.472,13.018 0.373,26.06 0.052,39.08 -0.337,13.6 -0.983,27.201 -2.119,40.76 -0.831,9.918 -6.091,35.294 -6.091,35.294 0,0 7.881,-65.429 -0.645,-134.951 -0.116,-0.694 -0.259,-1.383 -0.417,-2.069 -19.747,-4.161 -40.387,-5.092 -60.378,-5.775 -20.763,-0.709 -41.565,-0.558 -62.324,0.2 -0.17,0.007 -0.338,0.014 -0.508,0.02 15.064,13.347 29.303,27.933 42.809,42.731 6.862,7.519 14.804,15.622 19.174,24.951 2.272,4.85 3.044,10.561 3.74,15.819 0.913,6.887 1.047,13.809 0.5,20.731 -1.429,18.07 -7.597,35.372 -15.865,51.385 -8.703,16.854 -20.005,31.814 -35.174,43.333 -11.307,8.585 -23.978,15 -37.288,19.855 -4.59,1.675 -9.261,3.112 -13.95,4.479 -3.263,0.951 -6.393,2.051 -9.816,2.23 -6.214,0.324 -12.628,-0.928 -18.713,-2.018 -8.716,-1.561 -17.345,-3.619 -25.928,-5.783 -17.834,-4.498 -58.221,-18.098 -58.221,-18.098 0,0 24.313,-0.837 49.419,-6.196 18.112,-3.866 36.337,-10.777 47.565,-18.155 13.743,-9.03 24.871,-21.545 33.989,-35.115 9.19,-13.678 14.26,-29.128 16.795,-45.331 3.179,-20.313 2.213,-41.493 -1.116,-61.723 -1.274,-7.753 -2.96,-15.466 -5.259,-22.983 -0.714,-2.336 -13.79,-17.431 -13.79,-17.431 0,0 87.032,-1.551 123.764,2.56 11.318,1.267 22.67,2.97 33.657,6.032 7.956,2.217 16.326,5.247 22.505,10.932 4.733,4.354 7.153,10.951 9.162,16.884 2.987,8.825 4.899,18.021 6.578,27.171 4.527,24.653 6.89,49.739 8.516,74.734 1.619,24.869 2.395,49.861 1.587,74.778" /><g
       id="g58"
       transform="translate(333.4346,286.9854)"><path
         d="m 0,0 c -9.466,-7.777 -21.936,-10.033 -33.871,-9.391 -14.087,0.759 -29.408,4.561 -40.57,13.599 -19.76,19.989 -25.304,38.024 -25.304,38.024 0,0 0.954,-23.313 20.162,-43.164 11.691,-9.744 26.777,-13.713 41.617,-15.378 13.548,-1.52 27.586,0.558 39.102,8.183 17.978,11.902 25.635,33.897 28.354,54.343 2.211,16.615 -0.575,33.517 -6.688,49.076 -4.407,11.222 -10.895,21.808 -20.217,29.604 -11.002,9.204 -24.73,12.844 -38.899,12.496 -14.901,-0.367 -29.256,-4.933 -41.026,-14.143 -22.024,-18.841 -22.535,-40.1 -22.535,-40.1 0,0 10.724,29.292 40.325,42.285 13.888,5.712 30.794,6.673 44.934,1.381 11.47,-4.294 20.09,-13.711 25.977,-24.16 C 19.757,87.752 24.13,69.23 22.836,52.12 21.4,33.143 15.184,12.476 0,0"
         style="fill:#000000;fill-opacity:1;fill-rule:nonzero;stroke:none"
         id="path60"
         inkscape:connector-curvature="0" /></g><g
       id="g62"
       transform="translate(0,-54.4)"><g
         id="g64"
         clip-path="url(#clipPath66)"><g
           id="g70"><g
             id="g72" /><g
             id="g96"
             mask="url(#mask84)"><g
               id="g98"><path
                 d="M 103.957,203.764 C 103.957,191.57 236.5,181.686 400,181.686 l 0,0 c 163.5,0 296.043,9.884 296.043,22.078 l 0,0 c 0,12.193 -132.543,22.077 -296.043,22.077 l 0,0 c -163.5,0 -296.043,-9.884 -296.043,-22.077"
                 style="fill:url(#radialGradient100);stroke:none"
                 id="path106"
                 inkscape:connector-curvature="0" /></g></g></g></g></g></g></svg>