<?xml version="1.0" encoding="UTF-8" standalone="no"?>
<!-- Created with Inkscape (http://www.inkscape.org/) -->

<svg
   xmlns:dc="http://purl.org/dc/elements/1.1/"
   xmlns:cc="http://creativecommons.org/ns#"
   xmlns:rdf="http://www.w3.org/1999/02/22-rdf-syntax-ns#"
   xmlns:svg="http://www.w3.org/2000/svg"
   xmlns="http://www.w3.org/2000/svg"
   xmlns:sodipodi="http://sodipodi.sourceforge.net/DTD/sodipodi-0.dtd"
   xmlns:inkscape="http://www.inkscape.org/namespaces/inkscape"
   width="714.95154"
   height="383.08878"
   id="svg2"
   version="1.1"
   inkscape:version="0.48.4 r9939"
   sodipodi:docname="pinhole.svg">
  <sodipodi:namedview
     id="base"
     pagecolor="#ffffff"
     bordercolor="#666666"
     borderopacity="1.0"
     inkscape:pageopacity="0.0"
     inkscape:pageshadow="2"
     inkscape:zoom="1.4"
     inkscape:cx="388.78451"
     inkscape:cy="139.31181"
     inkscape:document-units="px"
     inkscape:current-layer="layer1"
     showgrid="false"
     inkscape:window-width="1280"
     inkscape:window-height="994"
     inkscape:window-x="0"
     inkscape:window-y="0"
     inkscape:window-maximized="1"
     fit-margin-top="10"
     fit-margin-right="10"
     fit-margin-bottom="10"
     fit-margin-left="10" />
  <defs
     id="defs4">
    <clipPath
       clipPathUnits="userSpaceOnUse"
       id="clipPath3159">
      <path
         d="m 850.391,1671.2 4535.499,0 0,2865.58 -4535.499,0 0,-2865.58 z"
         id="path3161"
         inkscape:connector-curvature="0" />
    </clipPath>
  </defs>
  <metadata
     id="metadata7">
    <rdf:RDF>
      <cc:Work
         rdf:about="">
        <dc:format>image/svg+xml</dc:format>
        <dc:type
           rdf:resource="http://purl.org/dc/dcmitype/StillImage" />
        <dc:title />
      </cc:Work>
    </rdf:RDF>
  </metadata>
  <g
     id="layer1"
     inkscape:groupmode="layer"
     inkscape:label="Layer 1"
     transform="translate(-17.319544,-504.70135)">
    <g
       id="g3163"
       transform="matrix(0.09939487,0.04250375,0,0.10810138,-15.184262,1071.4265)">
      <path
         inkscape:connector-curvature="0"
         d="m 1981.49,-5129.55 124.61,0 0,106.38 -124.61,0.02 0,-106.4 z"
         style="fill:none;stroke:#c8c8c8;stroke-width:1.61100996;stroke-linecap:butt;stroke-linejoin:miter;stroke-miterlimit:4;stroke-opacity:1;stroke-dasharray:none"
         id="path3165" />
    </g>
    <g
       id="g3167"
       transform="matrix(0.09939487,0.04250375,0,0.10810138,-15.184262,1071.4265)">
      <path
         inkscape:connector-curvature="0"
         d="m 1981.49,-5129.55 124.61,0 0,106.38 -124.61,0.02 0,-106.4 z"
         style="fill:none;stroke:#c8c8c8;stroke-width:1.61100996;stroke-linecap:butt;stroke-linejoin:miter;stroke-miterlimit:4;stroke-opacity:1;stroke-dasharray:none"
         id="path3169" />
    </g>
    <g
       id="g3171"
       transform="matrix(0.09939487,0.04250375,0,0.10810138,-15.184262,1071.4265)">
      <path
         inkscape:connector-curvature="0"
         d="m 1981.49,-5023.15 124.61,-0.02 0,106.4 -124.61,0 0,-106.38 z"
         style="fill:none;stroke:#c8c8c8;stroke-width:1.61100996;stroke-linecap:butt;stroke-linejoin:miter;stroke-miterlimit:4;stroke-opacity:1;stroke-dasharray:none"
         id="path3173" />
    </g>
    <g
       id="g3175"
       transform="matrix(0.09939487,0.04250375,0,0.10810138,-15.184262,1071.4265)">
      <path
         inkscape:connector-curvature="0"
         d="m 1981.49,-4916.77 124.61,0 0,106.43 -124.61,-0.03 0,-106.4 z"
         style="fill:none;stroke:#c8c8c8;stroke-width:1.61100996;stroke-linecap:butt;stroke-linejoin:miter;stroke-miterlimit:4;stroke-opacity:1;stroke-dasharray:none"
         id="path3177" />
    </g>
    <g
       id="g3179"
       transform="matrix(0.09939487,0.04250375,0,0.10810138,-15.184262,1071.4265)">
      <path
         inkscape:connector-curvature="0"
         d="m 1981.49,-4810.37 124.61,0.03 0,106.39 -124.61,-0.04 0,-106.38 z"
         style="fill:none;stroke:#c8c8c8;stroke-width:1.61100996;stroke-linecap:butt;stroke-linejoin:miter;stroke-miterlimit:4;stroke-opacity:1;stroke-dasharray:none"
         id="path3181" />
    </g>
    <g
       id="g3183"
       transform="matrix(0.09939487,0.04250375,0,0.10810138,-15.184262,1071.4265)">
      <path
         inkscape:connector-curvature="0"
         d="m 1981.49,-4703.99 124.61,0.04 0,106.39 -124.61,-0.03 0,-106.4 z"
         style="fill:none;stroke:#c8c8c8;stroke-width:1.61100996;stroke-linecap:butt;stroke-linejoin:miter;stroke-miterlimit:4;stroke-opacity:1;stroke-dasharray:none"
         id="path3185" />
    </g>
    <g
       id="g3187"
       transform="matrix(0.09939487,0.04250375,0,0.10810138,-15.184262,1071.4265)">
      <path
         inkscape:connector-curvature="0"
         d="m 1981.49,-4597.59 124.61,0.03 0,106.4 -124.61,0 0,-106.43 z"
         style="fill:none;stroke:#c8c8c8;stroke-width:1.61100996;stroke-linecap:butt;stroke-linejoin:miter;stroke-miterlimit:4;stroke-opacity:1;stroke-dasharray:none"
         id="path3189" />
    </g>
    <g
       id="g3191"
       transform="matrix(0.09939487,0.04250375,0,0.10810138,-15.184262,1071.4265)">
      <path
         inkscape:connector-curvature="0"
         d="m 1981.49,-4491.16 124.61,0 0,106.39 -124.61,0 0,-106.39 z"
         style="fill:none;stroke:#c8c8c8;stroke-width:1.61100996;stroke-linecap:butt;stroke-linejoin:miter;stroke-miterlimit:4;stroke-opacity:1;stroke-dasharray:none"
         id="path3193" />
    </g>
    <g
       id="g3195"
       transform="matrix(0.09939487,0.04250375,0,0.10810138,-15.184262,1071.4265)">
      <path
         inkscape:connector-curvature="0"
         d="m 1981.49,-4384.77 124.61,0 0,106.39 -124.61,0.01 0,-106.4 z"
         style="fill:none;stroke:#c8c8c8;stroke-width:1.61100996;stroke-linecap:butt;stroke-linejoin:miter;stroke-miterlimit:4;stroke-opacity:1;stroke-dasharray:none"
         id="path3197" />
    </g>
    <g
       id="g3199"
       transform="matrix(0.09939487,0.04250375,0,0.10810138,-15.184262,1071.4265)">
      <path
         inkscape:connector-curvature="0"
         d="m 1981.49,-4278.37 124.61,-0.01 0,106.42 -124.61,-0.02 0,-106.39 z"
         style="fill:none;stroke:#c8c8c8;stroke-width:1.61100996;stroke-linecap:butt;stroke-linejoin:miter;stroke-miterlimit:4;stroke-opacity:1;stroke-dasharray:none"
         id="path3201" />
    </g>
    <g
       id="g3203"
       transform="matrix(0.09939487,0.04250375,0,0.10810138,-15.184262,1071.4265)">
      <path
         inkscape:connector-curvature="0"
         d="m 1981.49,-4171.98 124.61,0.02 0,106.4 -124.61,-0.03 0,-106.39 z"
         style="fill:none;stroke:#c8c8c8;stroke-width:1.61100996;stroke-linecap:butt;stroke-linejoin:miter;stroke-miterlimit:4;stroke-opacity:1;stroke-dasharray:none"
         id="path3205" />
    </g>
    <g
       id="g3207"
       transform="matrix(0.09939487,0.04250375,0,0.10810138,-15.184262,1071.4265)">
      <path
         inkscape:connector-curvature="0"
         d="m 2106.1,-5129.55 124.65,0.02 0,106.38 -124.65,-0.02 0,-106.38 z"
         style="fill:none;stroke:#c8c8c8;stroke-width:1.61100996;stroke-linecap:butt;stroke-linejoin:miter;stroke-miterlimit:4;stroke-opacity:1;stroke-dasharray:none"
         id="path3209" />
    </g>
    <g
       id="g3211"
       transform="matrix(0.09939487,0.04250375,0,0.10810138,-15.184262,1071.4265)">
      <path
         inkscape:connector-curvature="0"
         d="m 2106.1,-5023.17 124.65,0.02 0,106.4 -124.65,-0.02 0,-106.4 z"
         style="fill:none;stroke:#c8c8c8;stroke-width:1.61100996;stroke-linecap:butt;stroke-linejoin:miter;stroke-miterlimit:4;stroke-opacity:1;stroke-dasharray:none"
         id="path3213" />
    </g>
    <g
       id="g3215"
       transform="matrix(0.09939487,0.04250375,0,0.10810138,-15.184262,1071.4265)">
      <path
         inkscape:connector-curvature="0"
         d="m 2106.1,-4916.77 124.65,0.02 0,106.39 -124.65,0.02 0,-106.43 z"
         style="fill:none;stroke:#c8c8c8;stroke-width:1.61100996;stroke-linecap:butt;stroke-linejoin:miter;stroke-miterlimit:4;stroke-opacity:1;stroke-dasharray:none"
         id="path3217" />
    </g>
    <g
       id="g3219"
       transform="matrix(0.09939487,0.04250375,0,0.10810138,-15.184262,1071.4265)">
      <path
         inkscape:connector-curvature="0"
         d="m 2106.1,-4810.34 124.65,-0.02 0,106.39 -124.65,0.02 0,-106.39 z"
         style="fill:none;stroke:#c8c8c8;stroke-width:1.61100996;stroke-linecap:butt;stroke-linejoin:miter;stroke-miterlimit:4;stroke-opacity:1;stroke-dasharray:none"
         id="path3221" />
    </g>
    <g
       id="g3223"
       transform="matrix(0.09939487,0.04250375,0,0.10810138,-15.184262,1071.4265)">
      <path
         inkscape:connector-curvature="0"
         d="m 2106.1,-4703.95 124.65,-0.02 0,106.39 -124.65,0.02 0,-106.39 z"
         style="fill:none;stroke:#c8c8c8;stroke-width:1.61100996;stroke-linecap:butt;stroke-linejoin:miter;stroke-miterlimit:4;stroke-opacity:1;stroke-dasharray:none"
         id="path3225" />
    </g>
    <g
       id="g3227"
       transform="matrix(0.09939487,0.04250375,0,0.10810138,-15.184262,1071.4265)">
      <path
         inkscape:connector-curvature="0"
         d="m 2106.1,-4597.56 124.65,-0.02 0,106.44 -124.65,-0.02 0,-106.4 z"
         style="fill:none;stroke:#c8c8c8;stroke-width:1.61100996;stroke-linecap:butt;stroke-linejoin:miter;stroke-miterlimit:4;stroke-opacity:1;stroke-dasharray:none"
         id="path3229" />
    </g>
    <g
       id="g3231"
       transform="matrix(0.09939487,0.04250375,0,0.10810138,-15.184262,1071.4265)">
      <path
         inkscape:connector-curvature="0"
         d="m 2106.1,-4491.16 124.65,0.02 0,106.38 -124.65,-0.01 0,-106.39 z"
         style="fill:none;stroke:#c8c8c8;stroke-width:1.61100996;stroke-linecap:butt;stroke-linejoin:miter;stroke-miterlimit:4;stroke-opacity:1;stroke-dasharray:none"
         id="path3233" />
    </g>
    <g
       id="g3235"
       transform="matrix(0.09939487,0.04250375,0,0.10810138,-15.184262,1071.4265)">
      <path
         inkscape:connector-curvature="0"
         d="m 2106.1,-4384.77 124.65,0.01 0,106.4 -124.65,-0.02 0,-106.39 z"
         style="fill:none;stroke:#c8c8c8;stroke-width:1.61100996;stroke-linecap:butt;stroke-linejoin:miter;stroke-miterlimit:4;stroke-opacity:1;stroke-dasharray:none"
         id="path3237" />
    </g>
    <g
       id="g3239"
       transform="matrix(0.09939487,0.04250375,0,0.10810138,-15.184262,1071.4265)">
      <path
         inkscape:connector-curvature="0"
         d="m 2106.1,-4278.38 124.65,0.02 0,106.38 -124.65,0.02 0,-106.42 z"
         style="fill:none;stroke:#c8c8c8;stroke-width:1.61100996;stroke-linecap:butt;stroke-linejoin:miter;stroke-miterlimit:4;stroke-opacity:1;stroke-dasharray:none"
         id="path3241" />
    </g>
    <g
       id="g3243"
       transform="matrix(0.09939487,0.04250375,0,0.10810138,-15.184262,1071.4265)">
      <path
         inkscape:connector-curvature="0"
         d="m 2106.1,-4171.96 124.65,-0.02 0,106.4 -124.65,0.02 0,-106.4 z"
         style="fill:none;stroke:#c8c8c8;stroke-width:1.61100996;stroke-linecap:butt;stroke-linejoin:miter;stroke-miterlimit:4;stroke-opacity:1;stroke-dasharray:none"
         id="path3245" />
    </g>
    <g
       id="g3247"
       transform="matrix(0.09939487,0.04250375,0,0.10810138,-15.184262,1071.4265)">
      <path
         inkscape:connector-curvature="0"
         d="m 2230.75,-5129.53 124.66,-0.03 0,106.4 -124.66,0.01 0,-106.38 z"
         style="fill:none;stroke:#c8c8c8;stroke-width:1.61100996;stroke-linecap:butt;stroke-linejoin:miter;stroke-miterlimit:4;stroke-opacity:1;stroke-dasharray:none"
         id="path3249" />
    </g>
    <g
       id="g3251"
       transform="matrix(0.09939487,0.04250375,0,0.10810138,-15.184262,1071.4265)">
      <path
         inkscape:connector-curvature="0"
         d="m 2230.75,-5023.15 124.66,-0.01 0,106.39 -124.66,0.02 0,-106.4 z"
         style="fill:none;stroke:#c8c8c8;stroke-width:1.61100996;stroke-linecap:butt;stroke-linejoin:miter;stroke-miterlimit:4;stroke-opacity:1;stroke-dasharray:none"
         id="path3253" />
    </g>
    <g
       id="g3255"
       transform="matrix(0.09939487,0.04250375,0,0.10810138,-15.184262,1071.4265)">
      <path
         inkscape:connector-curvature="0"
         d="m 2230.75,-4916.75 124.66,-0.02 0,106.43 -124.66,-0.02 0,-106.39 z"
         style="fill:none;stroke:#c8c8c8;stroke-width:1.61100996;stroke-linecap:butt;stroke-linejoin:miter;stroke-miterlimit:4;stroke-opacity:1;stroke-dasharray:none"
         id="path3257" />
    </g>
    <g
       id="g3259"
       transform="matrix(0.09939487,0.04250375,0,0.10810138,-15.184262,1071.4265)">
      <path
         inkscape:connector-curvature="0"
         d="m 2230.75,-4810.36 124.66,0.02 0,106.39 -124.66,-0.02 0,-106.39 z"
         style="fill:none;stroke:#c8c8c8;stroke-width:1.61100996;stroke-linecap:butt;stroke-linejoin:miter;stroke-miterlimit:4;stroke-opacity:1;stroke-dasharray:none"
         id="path3261" />
    </g>
    <g
       id="g3263"
       transform="matrix(0.09939487,0.04250375,0,0.10810138,-15.184262,1071.4265)">
      <path
         inkscape:connector-curvature="0"
         d="m 2230.75,-4703.97 124.66,0.02 0,106.39 -124.66,-0.02 0,-106.39 z"
         style="fill:none;stroke:#c8c8c8;stroke-width:1.61100996;stroke-linecap:butt;stroke-linejoin:miter;stroke-miterlimit:4;stroke-opacity:1;stroke-dasharray:none"
         id="path3265" />
    </g>
    <g
       id="g3267"
       transform="matrix(0.09939487,0.04250375,0,0.10810138,-15.184262,1071.4265)">
      <path
         inkscape:connector-curvature="0"
         d="m 2230.75,-4597.58 124.66,0.02 0,106.39 -124.66,0.03 0,-106.44 z"
         style="fill:none;stroke:#c8c8c8;stroke-width:1.61100996;stroke-linecap:butt;stroke-linejoin:miter;stroke-miterlimit:4;stroke-opacity:1;stroke-dasharray:none"
         id="path3269" />
    </g>
    <g
       id="g3271"
       transform="matrix(0.09939487,0.04250375,0,0.10810138,-15.184262,1071.4265)">
      <path
         inkscape:connector-curvature="0"
         d="m 2230.75,-4491.14 124.66,-0.03 0,106.39 -124.66,0.02 0,-106.38 z"
         style="fill:none;stroke:#c8c8c8;stroke-width:1.61100996;stroke-linecap:butt;stroke-linejoin:miter;stroke-miterlimit:4;stroke-opacity:1;stroke-dasharray:none"
         id="path3273" />
    </g>
    <g
       id="g3275"
       transform="matrix(0.09939487,0.04250375,0,0.10810138,-15.184262,1071.4265)">
      <path
         inkscape:connector-curvature="0"
         d="m 2230.75,-4384.76 124.66,-0.02 0,106.44 -124.66,-0.02 0,-106.4 z"
         style="fill:none;stroke:#c8c8c8;stroke-width:1.61100996;stroke-linecap:butt;stroke-linejoin:miter;stroke-miterlimit:4;stroke-opacity:1;stroke-dasharray:none"
         id="path3277" />
    </g>
    <g
       id="g3279"
       transform="matrix(0.09939487,0.04250375,0,0.10810138,-15.184262,1071.4265)">
      <path
         inkscape:connector-curvature="0"
         d="m 2230.75,-4278.36 124.66,0.02 0,106.38 -124.66,-0.02 0,-106.38 z"
         style="fill:none;stroke:#c8c8c8;stroke-width:1.61100996;stroke-linecap:butt;stroke-linejoin:miter;stroke-miterlimit:4;stroke-opacity:1;stroke-dasharray:none"
         id="path3281" />
    </g>
    <g
       id="g3283"
       transform="matrix(0.09939487,0.04250375,0,0.10810138,-15.184262,1071.4265)">
      <path
         inkscape:connector-curvature="0"
         d="m 2230.75,-4171.98 124.66,0.02 0,106.4 -124.66,-0.02 0,-106.4 z"
         style="fill:none;stroke:#c8c8c8;stroke-width:1.61100996;stroke-linecap:butt;stroke-linejoin:miter;stroke-miterlimit:4;stroke-opacity:1;stroke-dasharray:none"
         id="path3285" />
    </g>
    <g
       id="g3287"
       transform="matrix(0.09939487,0.04250375,0,0.10810138,-15.184262,1071.4265)">
      <path
         inkscape:connector-curvature="0"
         d="m 2355.41,-5129.56 124.65,0.02 0,106.4 -124.65,-0.02 0,-106.4 z"
         style="fill:none;stroke:#c8c8c8;stroke-width:1.61100996;stroke-linecap:butt;stroke-linejoin:miter;stroke-miterlimit:4;stroke-opacity:1;stroke-dasharray:none"
         id="path3289" />
    </g>
    <g
       id="g3291"
       transform="matrix(0.09939487,0.04250375,0,0.10810138,-15.184262,1071.4265)">
      <path
         inkscape:connector-curvature="0"
         d="m 2355.41,-5023.16 124.65,0.02 0,106.38 -124.65,-0.01 0,-106.39 z"
         style="fill:none;stroke:#c8c8c8;stroke-width:1.61100996;stroke-linecap:butt;stroke-linejoin:miter;stroke-miterlimit:4;stroke-opacity:1;stroke-dasharray:none"
         id="path3293" />
    </g>
    <g
       id="g3295"
       transform="matrix(0.09939487,0.04250375,0,0.10810138,-15.184262,1071.4265)">
      <path
         inkscape:connector-curvature="0"
         d="m 2355.41,-4916.77 124.65,0.01 0,106.4 -124.65,0.02 0,-106.43 z"
         style="fill:none;stroke:#c8c8c8;stroke-width:1.61100996;stroke-linecap:butt;stroke-linejoin:miter;stroke-miterlimit:4;stroke-opacity:1;stroke-dasharray:none"
         id="path3297" />
    </g>
    <g
       id="g3299"
       transform="matrix(0.09939487,0.04250375,0,0.10810138,-15.184262,1071.4265)">
      <path
         inkscape:connector-curvature="0"
         d="m 2355.41,-4810.34 124.65,-0.02 0,106.38 -124.65,0.03 0,-106.39 z"
         style="fill:none;stroke:#c8c8c8;stroke-width:1.61100996;stroke-linecap:butt;stroke-linejoin:miter;stroke-miterlimit:4;stroke-opacity:1;stroke-dasharray:none"
         id="path3301" />
    </g>
    <g
       id="g3303"
       transform="matrix(0.09939487,0.04250375,0,0.10810138,-15.184262,1071.4265)">
      <path
         inkscape:connector-curvature="0"
         d="m 2355.41,-4703.95 124.65,-0.03 0,106.44 -124.65,-0.02 0,-106.39 z"
         style="fill:none;stroke:#c8c8c8;stroke-width:1.61100996;stroke-linecap:butt;stroke-linejoin:miter;stroke-miterlimit:4;stroke-opacity:1;stroke-dasharray:none"
         id="path3305" />
    </g>
    <g
       id="g3307"
       transform="matrix(0.09939487,0.04250375,0,0.10810138,-15.184262,1071.4265)">
      <path
         inkscape:connector-curvature="0"
         d="m 2355.41,-4597.56 124.65,0.02 0,106.39 -124.65,-0.02 0,-106.39 z"
         style="fill:none;stroke:#c8c8c8;stroke-width:1.61100996;stroke-linecap:butt;stroke-linejoin:miter;stroke-miterlimit:4;stroke-opacity:1;stroke-dasharray:none"
         id="path3309" />
    </g>
    <g
       id="g3311"
       transform="matrix(0.09939487,0.04250375,0,0.10810138,-15.184262,1071.4265)">
      <path
         inkscape:connector-curvature="0"
         d="m 2355.41,-4491.17 124.65,0.02 0,106.39 -124.65,-0.02 0,-106.39 z"
         style="fill:none;stroke:#c8c8c8;stroke-width:1.61100996;stroke-linecap:butt;stroke-linejoin:miter;stroke-miterlimit:4;stroke-opacity:1;stroke-dasharray:none"
         id="path3313" />
    </g>
    <g
       id="g3315"
       transform="matrix(0.09939487,0.04250375,0,0.10810138,-15.184262,1071.4265)">
      <path
         inkscape:connector-curvature="0"
         d="m 2355.41,-4384.78 124.65,0.02 0,106.39 -124.65,0.03 0,-106.44 z"
         style="fill:none;stroke:#c8c8c8;stroke-width:1.61100996;stroke-linecap:butt;stroke-linejoin:miter;stroke-miterlimit:4;stroke-opacity:1;stroke-dasharray:none"
         id="path3317" />
    </g>
    <g
       id="g3319"
       transform="matrix(0.09939487,0.04250375,0,0.10810138,-15.184262,1071.4265)">
      <path
         inkscape:connector-curvature="0"
         d="m 2355.41,-4278.34 124.65,-0.03 0,106.4 -124.65,0.01 0,-106.38 z"
         style="fill:none;stroke:#c8c8c8;stroke-width:1.61100996;stroke-linecap:butt;stroke-linejoin:miter;stroke-miterlimit:4;stroke-opacity:1;stroke-dasharray:none"
         id="path3321" />
    </g>
    <g
       id="g3323"
       transform="matrix(0.09939487,0.04250375,0,0.10810138,-15.184262,1071.4265)">
      <path
         inkscape:connector-curvature="0"
         d="m 2355.41,-4171.96 124.65,-0.01 0,106.38 -124.65,0.03 0,-106.4 z"
         style="fill:none;stroke:#c8c8c8;stroke-width:1.61100996;stroke-linecap:butt;stroke-linejoin:miter;stroke-miterlimit:4;stroke-opacity:1;stroke-dasharray:none"
         id="path3325" />
    </g>
    <g
       id="g3327"
       transform="matrix(0.09939487,0.04250375,0,0.10810138,-15.184262,1071.4265)">
      <path
         inkscape:connector-curvature="0"
         d="m 2480.06,-5129.54 124.65,-0.02 0,106.39 -124.65,0.03 0,-106.4 z"
         style="fill:none;stroke:#c8c8c8;stroke-width:1.61100996;stroke-linecap:butt;stroke-linejoin:miter;stroke-miterlimit:4;stroke-opacity:1;stroke-dasharray:none"
         id="path3329" />
    </g>
    <g
       id="g3331"
       transform="matrix(0.09939487,0.04250375,0,0.10810138,-15.184262,1071.4265)">
      <path
         inkscape:connector-curvature="0"
         d="m 2480.06,-5023.14 124.65,-0.03 0,106.43 -124.65,-0.02 0,-106.38 z"
         style="fill:none;stroke:#c8c8c8;stroke-width:1.61100996;stroke-linecap:butt;stroke-linejoin:miter;stroke-miterlimit:4;stroke-opacity:1;stroke-dasharray:none"
         id="path3333" />
    </g>
    <g
       id="g3335"
       transform="matrix(0.09939487,0.04250375,0,0.10810138,-15.184262,1071.4265)">
      <path
         inkscape:connector-curvature="0"
         d="m 2480.06,-4916.76 124.65,0.02 0,106.4 -124.65,-0.02 0,-106.4 z"
         style="fill:none;stroke:#c8c8c8;stroke-width:1.61100996;stroke-linecap:butt;stroke-linejoin:miter;stroke-miterlimit:4;stroke-opacity:1;stroke-dasharray:none"
         id="path3337" />
    </g>
    <g
       id="g3339"
       transform="matrix(0.09939487,0.04250375,0,0.10810138,-15.184262,1071.4265)">
      <path
         inkscape:connector-curvature="0"
         d="m 2480.06,-4810.36 124.65,0.02 0,106.38 -124.65,-0.02 0,-106.38 z"
         style="fill:none;stroke:#c8c8c8;stroke-width:1.61100996;stroke-linecap:butt;stroke-linejoin:miter;stroke-miterlimit:4;stroke-opacity:1;stroke-dasharray:none"
         id="path3341" />
    </g>
    <g
       id="g3343"
       transform="matrix(0.09939487,0.04250375,0,0.10810138,-15.184262,1071.4265)">
      <path
         inkscape:connector-curvature="0"
         d="m 2480.06,-4703.98 124.65,0.02 0,106.4 -124.65,0.02 0,-106.44 z"
         style="fill:none;stroke:#c8c8c8;stroke-width:1.61100996;stroke-linecap:butt;stroke-linejoin:miter;stroke-miterlimit:4;stroke-opacity:1;stroke-dasharray:none"
         id="path3345" />
    </g>
    <g
       id="g3347"
       transform="matrix(0.09939487,0.04250375,0,0.10810138,-15.184262,1071.4265)">
      <path
         inkscape:connector-curvature="0"
         d="m 2480.06,-4597.54 124.65,-0.02 0,106.39 -124.65,0.02 0,-106.39 z"
         style="fill:none;stroke:#c8c8c8;stroke-width:1.61100996;stroke-linecap:butt;stroke-linejoin:miter;stroke-miterlimit:4;stroke-opacity:1;stroke-dasharray:none"
         id="path3349" />
    </g>
    <g
       id="g3351"
       transform="matrix(0.09939487,0.04250375,0,0.10810138,-15.184262,1071.4265)">
      <path
         inkscape:connector-curvature="0"
         d="m 2480.06,-4491.15 124.65,-0.02 0,106.39 -124.65,0.02 0,-106.39 z"
         style="fill:none;stroke:#c8c8c8;stroke-width:1.61100996;stroke-linecap:butt;stroke-linejoin:miter;stroke-miterlimit:4;stroke-opacity:1;stroke-dasharray:none"
         id="path3353" />
    </g>
    <g
       id="g3355"
       transform="matrix(0.09939487,0.04250375,0,0.10810138,-15.184262,1071.4265)">
      <path
         inkscape:connector-curvature="0"
         d="m 2480.06,-4384.76 124.65,-0.02 0,106.42 -124.65,-0.01 0,-106.39 z"
         style="fill:none;stroke:#c8c8c8;stroke-width:1.61100996;stroke-linecap:butt;stroke-linejoin:miter;stroke-miterlimit:4;stroke-opacity:1;stroke-dasharray:none"
         id="path3357" />
    </g>
    <g
       id="g3359"
       transform="matrix(0.09939487,0.04250375,0,0.10810138,-15.184262,1071.4265)">
      <path
         inkscape:connector-curvature="0"
         d="m 2480.06,-4278.37 124.65,0.01 0,106.4 -124.65,-0.01 0,-106.4 z"
         style="fill:none;stroke:#c8c8c8;stroke-width:1.61100996;stroke-linecap:butt;stroke-linejoin:miter;stroke-miterlimit:4;stroke-opacity:1;stroke-dasharray:none"
         id="path3361" />
    </g>
    <g
       id="g3363"
       transform="matrix(0.09939487,0.04250375,0,0.10810138,-15.184262,1071.4265)">
      <path
         inkscape:connector-curvature="0"
         d="m 2480.06,-4171.97 124.65,0.01 0,106.39 -124.65,-0.02 0,-106.38 z"
         style="fill:none;stroke:#c8c8c8;stroke-width:1.61100996;stroke-linecap:butt;stroke-linejoin:miter;stroke-miterlimit:4;stroke-opacity:1;stroke-dasharray:none"
         id="path3365" />
    </g>
    <g
       id="g3367"
       transform="matrix(0.09939487,0.04250375,0,0.10810138,-15.184262,1071.4265)">
      <path
         inkscape:connector-curvature="0"
         d="m 2604.71,-5129.56 124.66,0.02 0,106.38 -124.66,-0.01 0,-106.39 z"
         style="fill:none;stroke:#c8c8c8;stroke-width:1.61100996;stroke-linecap:butt;stroke-linejoin:miter;stroke-miterlimit:4;stroke-opacity:1;stroke-dasharray:none"
         id="path3369" />
    </g>
    <g
       id="g3371"
       transform="matrix(0.09939487,0.04250375,0,0.10810138,-15.184262,1071.4265)">
      <path
         inkscape:connector-curvature="0"
         d="m 2604.71,-5023.17 124.66,0.01 0,106.4 -124.66,0.02 0,-106.43 z"
         style="fill:none;stroke:#c8c8c8;stroke-width:1.61100996;stroke-linecap:butt;stroke-linejoin:miter;stroke-miterlimit:4;stroke-opacity:1;stroke-dasharray:none"
         id="path3373" />
    </g>
    <g
       id="g3375"
       transform="matrix(0.09939487,0.04250375,0,0.10810138,-15.184262,1071.4265)">
      <path
         inkscape:connector-curvature="0"
         d="m 2604.71,-4916.74 124.66,-0.02 0,106.39 -124.66,0.03 0,-106.4 z"
         style="fill:none;stroke:#c8c8c8;stroke-width:1.61100996;stroke-linecap:butt;stroke-linejoin:miter;stroke-miterlimit:4;stroke-opacity:1;stroke-dasharray:none"
         id="path3377" />
    </g>
    <g
       id="g3379"
       transform="matrix(0.09939487,0.04250375,0,0.10810138,-15.184262,1071.4265)">
      <path
         inkscape:connector-curvature="0"
         d="m 2604.71,-4810.34 124.66,-0.03 0,106.39 -124.66,0.02 0,-106.38 z"
         style="fill:none;stroke:#c8c8c8;stroke-width:1.61100996;stroke-linecap:butt;stroke-linejoin:miter;stroke-miterlimit:4;stroke-opacity:1;stroke-dasharray:none"
         id="path3381" />
    </g>
    <g
       id="g3383"
       transform="matrix(0.09939487,0.04250375,0,0.10810138,-15.184262,1071.4265)">
      <path
         inkscape:connector-curvature="0"
         d="m 2604.71,-4703.96 124.66,-0.02 0,106.43 -124.66,-0.01 0,-106.4 z"
         style="fill:none;stroke:#c8c8c8;stroke-width:1.61100996;stroke-linecap:butt;stroke-linejoin:miter;stroke-miterlimit:4;stroke-opacity:1;stroke-dasharray:none"
         id="path3385" />
    </g>
    <g
       id="g3387"
       transform="matrix(0.09939487,0.04250375,0,0.10810138,-15.184262,1071.4265)">
      <path
         inkscape:connector-curvature="0"
         d="m 2604.71,-4597.56 124.66,0.01 0,106.4 -124.66,-0.02 0,-106.39 z"
         style="fill:none;stroke:#c8c8c8;stroke-width:1.61100996;stroke-linecap:butt;stroke-linejoin:miter;stroke-miterlimit:4;stroke-opacity:1;stroke-dasharray:none"
         id="path3389" />
    </g>
    <g
       id="g3391"
       transform="matrix(0.09939487,0.04250375,0,0.10810138,-15.184262,1071.4265)">
      <path
         inkscape:connector-curvature="0"
         d="m 2604.71,-4491.17 124.66,0.02 0,106.38 -124.66,-0.01 0,-106.39 z"
         style="fill:none;stroke:#c8c8c8;stroke-width:1.61100996;stroke-linecap:butt;stroke-linejoin:miter;stroke-miterlimit:4;stroke-opacity:1;stroke-dasharray:none"
         id="path3393" />
    </g>
    <g
       id="g3395"
       transform="matrix(0.09939487,0.04250375,0,0.10810138,-15.184262,1071.4265)">
      <path
         inkscape:connector-curvature="0"
         d="m 2604.71,-4384.78 124.66,0.01 0,106.4 -124.66,0.01 0,-106.42 z"
         style="fill:none;stroke:#c8c8c8;stroke-width:1.61100996;stroke-linecap:butt;stroke-linejoin:miter;stroke-miterlimit:4;stroke-opacity:1;stroke-dasharray:none"
         id="path3397" />
    </g>
    <g
       id="g3399"
       transform="matrix(0.09939487,0.04250375,0,0.10810138,-15.184262,1071.4265)">
      <path
         inkscape:connector-curvature="0"
         d="m 2604.71,-4278.36 124.66,-0.01 0,106.39 -124.66,0.02 0,-106.4 z"
         style="fill:none;stroke:#c8c8c8;stroke-width:1.61100996;stroke-linecap:butt;stroke-linejoin:miter;stroke-miterlimit:4;stroke-opacity:1;stroke-dasharray:none"
         id="path3401" />
    </g>
    <g
       id="g3403"
       transform="matrix(0.09939487,0.04250375,0,0.10810138,-15.184262,1071.4265)">
      <path
         inkscape:connector-curvature="0"
         d="m 2604.71,-4171.96 124.66,-0.02 0,106.39 -124.66,0.02 0,-106.39 z"
         style="fill:none;stroke:#c8c8c8;stroke-width:1.61100996;stroke-linecap:butt;stroke-linejoin:miter;stroke-miterlimit:4;stroke-opacity:1;stroke-dasharray:none"
         id="path3405" />
    </g>
    <g
       id="g3407"
       transform="matrix(0.09939487,0.04250375,0,0.10810138,-15.184262,1071.4265)">
      <path
         inkscape:connector-curvature="0"
         d="m 2729.37,-5129.54 124.65,-0.02 0,106.39 -124.65,0.01 0,-106.38 z"
         style="fill:none;stroke:#c8c8c8;stroke-width:1.61100996;stroke-linecap:butt;stroke-linejoin:miter;stroke-miterlimit:4;stroke-opacity:1;stroke-dasharray:none"
         id="path3409" />
    </g>
    <g
       id="g3411"
       transform="matrix(0.09939487,0.04250375,0,0.10810138,-15.184262,1071.4265)">
      <path
         inkscape:connector-curvature="0"
         d="m 2729.37,-5023.16 124.65,-0.01 0,106.43 -124.65,-0.02 0,-106.4 z"
         style="fill:none;stroke:#c8c8c8;stroke-width:1.61100996;stroke-linecap:butt;stroke-linejoin:miter;stroke-miterlimit:4;stroke-opacity:1;stroke-dasharray:none"
         id="path3413" />
    </g>
    <g
       id="g3415"
       transform="matrix(0.09939487,0.04250375,0,0.10810138,-15.184262,1071.4265)">
      <path
         inkscape:connector-curvature="0"
         d="m 2729.37,-4916.76 124.65,0.02 0,106.39 -124.65,-0.02 0,-106.39 z"
         style="fill:none;stroke:#c8c8c8;stroke-width:1.61100996;stroke-linecap:butt;stroke-linejoin:miter;stroke-miterlimit:4;stroke-opacity:1;stroke-dasharray:none"
         id="path3417" />
    </g>
    <g
       id="g3419"
       transform="matrix(0.09939487,0.04250375,0,0.10810138,-15.184262,1071.4265)">
      <path
         inkscape:connector-curvature="0"
         d="m 2729.37,-4810.37 124.65,0.02 0,106.39 -124.65,-0.02 0,-106.39 z"
         style="fill:none;stroke:#c8c8c8;stroke-width:1.61100996;stroke-linecap:butt;stroke-linejoin:miter;stroke-miterlimit:4;stroke-opacity:1;stroke-dasharray:none"
         id="path3421" />
    </g>
    <g
       id="g3423"
       transform="matrix(0.09939487,0.04250375,0,0.10810138,-15.184262,1071.4265)">
      <path
         inkscape:connector-curvature="0"
         d="m 2729.37,-4703.98 124.65,0.02 0,106.39 -124.65,0.02 0,-106.43 z"
         style="fill:none;stroke:#c8c8c8;stroke-width:1.61100996;stroke-linecap:butt;stroke-linejoin:miter;stroke-miterlimit:4;stroke-opacity:1;stroke-dasharray:none"
         id="path3425" />
    </g>
    <g
       id="g3427"
       transform="matrix(0.09939487,0.04250375,0,0.10810138,-15.184262,1071.4265)">
      <path
         inkscape:connector-curvature="0"
         d="m 2729.37,-4597.55 124.65,-0.02 0,106.39 -124.65,0.03 0,-106.4 z"
         style="fill:none;stroke:#c8c8c8;stroke-width:1.61100996;stroke-linecap:butt;stroke-linejoin:miter;stroke-miterlimit:4;stroke-opacity:1;stroke-dasharray:none"
         id="path3429" />
    </g>
    <g
       id="g3431"
       transform="matrix(0.09939487,0.04250375,0,0.10810138,-15.184262,1071.4265)">
      <path
         inkscape:connector-curvature="0"
         d="m 2729.37,-4491.15 124.65,-0.03 0,106.39 -124.65,0.02 0,-106.38 z"
         style="fill:none;stroke:#c8c8c8;stroke-width:1.61100996;stroke-linecap:butt;stroke-linejoin:miter;stroke-miterlimit:4;stroke-opacity:1;stroke-dasharray:none"
         id="path3433" />
    </g>
    <g
       id="g3435"
       transform="matrix(0.09939487,0.04250375,0,0.10810138,-15.184262,1071.4265)">
      <path
         inkscape:connector-curvature="0"
         d="m 2729.37,-4384.77 124.65,-0.02 0,106.44 -124.65,-0.02 0,-106.4 z"
         style="fill:none;stroke:#c8c8c8;stroke-width:1.61100996;stroke-linecap:butt;stroke-linejoin:miter;stroke-miterlimit:4;stroke-opacity:1;stroke-dasharray:none"
         id="path3437" />
    </g>
    <g
       id="g3439"
       transform="matrix(0.09939487,0.04250375,0,0.10810138,-15.184262,1071.4265)">
      <path
         inkscape:connector-curvature="0"
         d="m 2729.37,-4278.37 124.65,0.02 0,106.38 -124.65,-0.01 0,-106.39 z"
         style="fill:none;stroke:#c8c8c8;stroke-width:1.61100996;stroke-linecap:butt;stroke-linejoin:miter;stroke-miterlimit:4;stroke-opacity:1;stroke-dasharray:none"
         id="path3441" />
    </g>
    <g
       id="g3443"
       transform="matrix(0.09939487,0.04250375,0,0.10810138,-15.184262,1071.4265)">
      <path
         inkscape:connector-curvature="0"
         d="m 2729.37,-4171.98 124.65,0.01 0,106.4 -124.65,-0.02 0,-106.39 z"
         style="fill:none;stroke:#c8c8c8;stroke-width:1.61100996;stroke-linecap:butt;stroke-linejoin:miter;stroke-miterlimit:4;stroke-opacity:1;stroke-dasharray:none"
         id="path3445" />
    </g>
    <g
       id="g3447"
       transform="matrix(0.09939487,0.04250375,0,0.10810138,-15.184262,1071.4265)">
      <path
         inkscape:connector-curvature="0"
         d="m 2854.02,-5129.56 124.65,0.01 0,106.39 -124.65,-0.01 0,-106.39 z"
         style="fill:none;stroke:#c8c8c8;stroke-width:1.61100996;stroke-linecap:butt;stroke-linejoin:miter;stroke-miterlimit:4;stroke-opacity:1;stroke-dasharray:none"
         id="path3449" />
    </g>
    <g
       id="g3451"
       transform="matrix(0.09939487,0.04250375,0,0.10810138,-15.184262,1071.4265)">
      <path
         inkscape:connector-curvature="0"
         d="m 2854.02,-5023.17 124.65,0.01 0,106.39 -124.65,0.03 0,-106.43 z"
         style="fill:none;stroke:#c8c8c8;stroke-width:1.61100996;stroke-linecap:butt;stroke-linejoin:miter;stroke-miterlimit:4;stroke-opacity:1;stroke-dasharray:none"
         id="path3453" />
    </g>
    <g
       id="g3455"
       transform="matrix(0.09939487,0.04250375,0,0.10810138,-15.184262,1071.4265)">
      <path
         inkscape:connector-curvature="0"
         d="m 2854.02,-4916.74 124.65,-0.03 0,106.4 -124.65,0.02 0,-106.39 z"
         style="fill:none;stroke:#c8c8c8;stroke-width:1.61100996;stroke-linecap:butt;stroke-linejoin:miter;stroke-miterlimit:4;stroke-opacity:1;stroke-dasharray:none"
         id="path3457" />
    </g>
    <g
       id="g3459"
       transform="matrix(0.09939487,0.04250375,0,0.10810138,-15.184262,1071.4265)">
      <path
         inkscape:connector-curvature="0"
         d="m 2854.02,-4810.35 124.65,-0.02 0,106.39 -124.65,0.02 0,-106.39 z"
         style="fill:none;stroke:#c8c8c8;stroke-width:1.61100996;stroke-linecap:butt;stroke-linejoin:miter;stroke-miterlimit:4;stroke-opacity:1;stroke-dasharray:none"
         id="path3461" />
    </g>
    <g
       id="g3463"
       transform="matrix(0.09939487,0.04250375,0,0.10810138,-15.184262,1071.4265)">
      <path
         inkscape:connector-curvature="0"
         d="m 2854.02,-4703.96 124.65,-0.02 0,106.43 -124.65,-0.02 0,-106.39 z"
         style="fill:none;stroke:#c8c8c8;stroke-width:1.61100996;stroke-linecap:butt;stroke-linejoin:miter;stroke-miterlimit:4;stroke-opacity:1;stroke-dasharray:none"
         id="path3465" />
    </g>
    <g
       id="g3467"
       transform="matrix(0.09939487,0.04250375,0,0.10810138,-15.184262,1071.4265)">
      <path
         inkscape:connector-curvature="0"
         d="m 2854.02,-4597.57 124.65,0.02 0,106.39 -124.65,-0.02 0,-106.39 z"
         style="fill:none;stroke:#c8c8c8;stroke-width:1.61100996;stroke-linecap:butt;stroke-linejoin:miter;stroke-miterlimit:4;stroke-opacity:1;stroke-dasharray:none"
         id="path3469" />
    </g>
    <g
       id="g3471"
       transform="matrix(0.09939487,0.04250375,0,0.10810138,-15.184262,1071.4265)">
      <path
         inkscape:connector-curvature="0"
         d="m 2854.02,-4491.18 124.65,0.02 0,106.39 -124.65,-0.02 0,-106.39 z"
         style="fill:none;stroke:#c8c8c8;stroke-width:1.61100996;stroke-linecap:butt;stroke-linejoin:miter;stroke-miterlimit:4;stroke-opacity:1;stroke-dasharray:none"
         id="path3473" />
    </g>
    <g
       id="g3475"
       transform="matrix(0.09939487,0.04250375,0,0.10810138,-15.184262,1071.4265)">
      <path
         inkscape:connector-curvature="0"
         d="m 2854.02,-4384.79 124.65,0.02 0,106.4 -124.65,0.02 0,-106.44 z"
         style="fill:none;stroke:#c8c8c8;stroke-width:1.61100996;stroke-linecap:butt;stroke-linejoin:miter;stroke-miterlimit:4;stroke-opacity:1;stroke-dasharray:none"
         id="path3477" />
    </g>
    <g
       id="g3479"
       transform="matrix(0.09939487,0.04250375,0,0.10810138,-15.184262,1071.4265)">
      <path
         inkscape:connector-curvature="0"
         d="m 2854.02,-4278.35 124.65,-0.02 0,106.38 -124.65,0.02 0,-106.38 z"
         style="fill:none;stroke:#c8c8c8;stroke-width:1.61100996;stroke-linecap:butt;stroke-linejoin:miter;stroke-miterlimit:4;stroke-opacity:1;stroke-dasharray:none"
         id="path3481" />
    </g>
    <g
       id="g3483"
       transform="matrix(0.09939487,0.04250375,0,0.10810138,-15.184262,1071.4265)">
      <path
         inkscape:connector-curvature="0"
         d="m 2854.02,-4171.97 124.65,-0.02 0,106.44 -124.65,-0.02 0,-106.4 z"
         style="fill:none;stroke:#c8c8c8;stroke-width:1.61100996;stroke-linecap:butt;stroke-linejoin:miter;stroke-miterlimit:4;stroke-opacity:1;stroke-dasharray:none"
         id="path3485" />
    </g>
    <g
       id="g3487"
       transform="matrix(0.09939487,0.04250375,0,0.10810138,-15.184262,1071.4265)">
      <path
         inkscape:connector-curvature="0"
         d="m 2978.67,-5129.55 124.65,-0.02 0,106.39 -124.65,0.02 0,-106.39 z"
         style="fill:none;stroke:#c8c8c8;stroke-width:1.61100996;stroke-linecap:butt;stroke-linejoin:miter;stroke-miterlimit:4;stroke-opacity:1;stroke-dasharray:none"
         id="path3489" />
    </g>
    <g
       id="g3491"
       transform="matrix(0.09939487,0.04250375,0,0.10810138,-15.184262,1071.4265)">
      <path
         inkscape:connector-curvature="0"
         d="m 2978.67,-5023.16 124.65,-0.02 0,106.43 -124.65,-0.02 0,-106.39 z"
         style="fill:none;stroke:#c8c8c8;stroke-width:1.61100996;stroke-linecap:butt;stroke-linejoin:miter;stroke-miterlimit:4;stroke-opacity:1;stroke-dasharray:none"
         id="path3493" />
    </g>
    <g
       id="g3495"
       transform="matrix(0.09939487,0.04250375,0,0.10810138,-15.184262,1071.4265)">
      <path
         inkscape:connector-curvature="0"
         d="m 2978.67,-4916.77 124.65,0.02 0,106.4 -124.65,-0.02 0,-106.4 z"
         style="fill:none;stroke:#c8c8c8;stroke-width:1.61100996;stroke-linecap:butt;stroke-linejoin:miter;stroke-miterlimit:4;stroke-opacity:1;stroke-dasharray:none"
         id="path3497" />
    </g>
    <g
       id="g3499"
       transform="matrix(0.09939487,0.04250375,0,0.10810138,-15.184262,1071.4265)">
      <path
         inkscape:connector-curvature="0"
         d="m 2978.67,-4810.37 124.65,0.02 0,106.38 -124.65,-0.01 0,-106.39 z"
         style="fill:none;stroke:#c8c8c8;stroke-width:1.61100996;stroke-linecap:butt;stroke-linejoin:miter;stroke-miterlimit:4;stroke-opacity:1;stroke-dasharray:none"
         id="path3501" />
    </g>
    <g
       id="g3503"
       transform="matrix(0.09939487,0.04250375,0,0.10810138,-15.184262,1071.4265)">
      <path
         inkscape:connector-curvature="0"
         d="m 2978.67,-4703.98 124.65,0.01 0,106.4 -124.65,0.02 0,-106.43 z"
         style="fill:none;stroke:#c8c8c8;stroke-width:1.61100996;stroke-linecap:butt;stroke-linejoin:miter;stroke-miterlimit:4;stroke-opacity:1;stroke-dasharray:none"
         id="path3505" />
    </g>
    <g
       id="g3507"
       transform="matrix(0.09939487,0.04250375,0,0.10810138,-15.184262,1071.4265)">
      <path
         inkscape:connector-curvature="0"
         d="m 2978.67,-4597.55 124.65,-0.02 0,106.39 -124.65,0.02 0,-106.39 z"
         style="fill:none;stroke:#c8c8c8;stroke-width:1.61100996;stroke-linecap:butt;stroke-linejoin:miter;stroke-miterlimit:4;stroke-opacity:1;stroke-dasharray:none"
         id="path3509" />
    </g>
    <g
       id="g3511"
       transform="matrix(0.09939487,0.04250375,0,0.10810138,-15.184262,1071.4265)">
      <path
         inkscape:connector-curvature="0"
         d="m 2978.67,-4491.16 124.65,-0.02 0,106.43 -124.65,-0.02 0,-106.39 z"
         style="fill:none;stroke:#c8c8c8;stroke-width:1.61100996;stroke-linecap:butt;stroke-linejoin:miter;stroke-miterlimit:4;stroke-opacity:1;stroke-dasharray:none"
         id="path3513" />
    </g>
    <g
       id="g3515"
       transform="matrix(0.09939487,0.04250375,0,0.10810138,-15.184262,1071.4265)">
      <path
         inkscape:connector-curvature="0"
         d="m 2978.67,-4384.77 124.65,0.02 0,106.39 -124.65,-0.01 0,-106.4 z"
         style="fill:none;stroke:#c8c8c8;stroke-width:1.61100996;stroke-linecap:butt;stroke-linejoin:miter;stroke-miterlimit:4;stroke-opacity:1;stroke-dasharray:none"
         id="path3517" />
    </g>
    <g
       id="g3519"
       transform="matrix(0.09939487,0.04250375,0,0.10810138,-15.184262,1071.4265)">
      <path
         inkscape:connector-curvature="0"
         d="m 2978.67,-4278.37 124.65,0.01 0,106.4 -124.65,-0.03 0,-106.38 z"
         style="fill:none;stroke:#c8c8c8;stroke-width:1.61100996;stroke-linecap:butt;stroke-linejoin:miter;stroke-miterlimit:4;stroke-opacity:1;stroke-dasharray:none"
         id="path3521" />
    </g>
    <g
       id="g3523"
       transform="matrix(0.09939487,0.04250375,0,0.10810138,-15.184262,1071.4265)">
      <path
         inkscape:connector-curvature="0"
         d="m 2978.67,-4171.99 124.65,0.03 0,106.38 -124.65,0.03 0,-106.44 z"
         style="fill:none;stroke:#c8c8c8;stroke-width:1.61100996;stroke-linecap:butt;stroke-linejoin:miter;stroke-miterlimit:4;stroke-opacity:1;stroke-dasharray:none"
         id="path3525" />
    </g>
    <g
       id="g3527"
       transform="matrix(0.09939487,0.04250375,0,0.10810138,-15.184262,1071.4265)">
      <path
         inkscape:connector-curvature="0"
         d="m 3103.32,-5129.57 124.66,0.02 0,106.39 -124.66,-0.02 0,-106.39 z"
         style="fill:none;stroke:#c8c8c8;stroke-width:1.61100996;stroke-linecap:butt;stroke-linejoin:miter;stroke-miterlimit:4;stroke-opacity:1;stroke-dasharray:none"
         id="path3529" />
    </g>
    <g
       id="g3531"
       transform="matrix(0.09939487,0.04250375,0,0.10810138,-15.184262,1071.4265)">
      <path
         inkscape:connector-curvature="0"
         d="m 3103.32,-5023.18 124.66,0.02 0,106.39 -124.66,0.02 0,-106.43 z"
         style="fill:none;stroke:#c8c8c8;stroke-width:1.61100996;stroke-linecap:butt;stroke-linejoin:miter;stroke-miterlimit:4;stroke-opacity:1;stroke-dasharray:none"
         id="path3533" />
    </g>
    <g
       id="g3535"
       transform="matrix(0.09939487,0.04250375,0,0.10810138,-15.184262,1071.4265)">
      <path
         inkscape:connector-curvature="0"
         d="m 3103.32,-4916.75 124.66,-0.02 0,106.4 -124.66,0.02 0,-106.4 z"
         style="fill:none;stroke:#c8c8c8;stroke-width:1.61100996;stroke-linecap:butt;stroke-linejoin:miter;stroke-miterlimit:4;stroke-opacity:1;stroke-dasharray:none"
         id="path3537" />
    </g>
    <g
       id="g3539"
       transform="matrix(0.09939487,0.04250375,0,0.10810138,-15.184262,1071.4265)">
      <path
         inkscape:connector-curvature="0"
         d="m 3103.32,-4810.35 124.66,-0.02 0,106.42 -124.66,-0.02 0,-106.38 z"
         style="fill:none;stroke:#c8c8c8;stroke-width:1.61100996;stroke-linecap:butt;stroke-linejoin:miter;stroke-miterlimit:4;stroke-opacity:1;stroke-dasharray:none"
         id="path3541" />
    </g>
    <g
       id="g3543"
       transform="matrix(0.09939487,0.04250375,0,0.10810138,-15.184262,1071.4265)">
      <path
         inkscape:connector-curvature="0"
         d="m 3103.32,-4703.97 124.66,0.02 0,106.4 -124.66,-0.02 0,-106.4 z"
         style="fill:none;stroke:#c8c8c8;stroke-width:1.61100996;stroke-linecap:butt;stroke-linejoin:miter;stroke-miterlimit:4;stroke-opacity:1;stroke-dasharray:none"
         id="path3545" />
    </g>
    <g
       id="g3547"
       transform="matrix(0.09939487,0.04250375,0,0.10810138,-15.184262,1071.4265)">
      <path
         inkscape:connector-curvature="0"
         d="m 3103.32,-4597.57 124.66,0.02 0,106.39 -124.66,-0.02 0,-106.39 z"
         style="fill:none;stroke:#c8c8c8;stroke-width:1.61100996;stroke-linecap:butt;stroke-linejoin:miter;stroke-miterlimit:4;stroke-opacity:1;stroke-dasharray:none"
         id="path3549" />
    </g>
    <g
       id="g3551"
       transform="matrix(0.09939487,0.04250375,0,0.10810138,-15.184262,1071.4265)">
      <path
         inkscape:connector-curvature="0"
         d="m 3103.32,-4491.18 124.66,0.02 0,106.39 -124.66,0.02 0,-106.43 z"
         style="fill:none;stroke:#c8c8c8;stroke-width:1.61100996;stroke-linecap:butt;stroke-linejoin:miter;stroke-miterlimit:4;stroke-opacity:1;stroke-dasharray:none"
         id="path3553" />
    </g>
    <g
       id="g3555"
       transform="matrix(0.09939487,0.04250375,0,0.10810138,-15.184262,1071.4265)">
      <path
         inkscape:connector-curvature="0"
         d="m 3103.32,-4384.75 124.66,-0.02 0,106.39 -124.66,0.02 0,-106.39 z"
         style="fill:none;stroke:#c8c8c8;stroke-width:1.61100996;stroke-linecap:butt;stroke-linejoin:miter;stroke-miterlimit:4;stroke-opacity:1;stroke-dasharray:none"
         id="path3557" />
    </g>
    <g
       id="g3559"
       transform="matrix(0.09939487,0.04250375,0,0.10810138,-15.184262,1071.4265)">
      <path
         inkscape:connector-curvature="0"
         d="m 3103.32,-4278.36 124.66,-0.02 0,106.39 -124.66,0.03 0,-106.4 z"
         style="fill:none;stroke:#c8c8c8;stroke-width:1.61100996;stroke-linecap:butt;stroke-linejoin:miter;stroke-miterlimit:4;stroke-opacity:1;stroke-dasharray:none"
         id="path3561" />
    </g>
    <g
       id="g3563"
       transform="matrix(0.09939487,0.04250375,0,0.10810138,-15.184262,1071.4265)">
      <path
         inkscape:connector-curvature="0"
         d="m 3103.32,-4171.96 124.66,-0.03 0,106.43 -124.66,-0.02 0,-106.38 z"
         style="fill:none;stroke:#c8c8c8;stroke-width:1.61100996;stroke-linecap:butt;stroke-linejoin:miter;stroke-miterlimit:4;stroke-opacity:1;stroke-dasharray:none"
         id="path3565" />
    </g>
    <g
       id="g3567"
       transform="matrix(1.25,0,0,-1.25,-15.184262,1071.4265)">
      <text
         transform="matrix(0.93409606,-0.35702179,0,-0.93409606,285.095,392.323)"
         id="text3569">
        <tspan
           style="font-size:7.15095615px;font-variant:normal;writing-mode:lr-tb;fill:#000000;fill-opacity:1;fill-rule:nonzero;stroke:none;font-family:DroidSans-Identity;-inkscape-font-specification:DroidSans-Identity-H"
           x="0 4.1177225 8.2499924 10.103632 14.316539 16.741705 18.595467 22.779236 25.618824 27.472464 31.685369 34.989883 36.843525 41.027294 44.826126"
           y="0"
           sodipodi:role="line"
           id="tspan3571" />
      </text>
    </g>
    <path
       inkscape:connector-curvature="0"
       d="m 462.19449,530.1115 -45.67875,32.04875"
       style="fill:none;stroke:#808080;stroke-width:0.41747999;stroke-linecap:butt;stroke-linejoin:miter;stroke-miterlimit:4;stroke-opacity:1;stroke-dasharray:none"
       id="path3573" />
    <path
       inkscape:connector-curvature="0"
       d="m 364.38074,598.8815 -70.60875,49.53875"
       style="fill:none;stroke:#808080;stroke-width:0.41747999;stroke-linecap:butt;stroke-linejoin:miter;stroke-miterlimit:4;stroke-opacity:1;stroke-dasharray:none"
       id="path3575" />
    <g
       id="g3577"
       transform="matrix(0.099583,0.04224425,0,0.10817275,-15.184262,1071.4265)">
      <path
         inkscape:connector-curvature="0"
         d="m 1981.39,-5117.6 1242.3,0.02 0,1064.92 -1242.3,0 0,-1064.94 z"
         style="fill:none;stroke:#000000;stroke-width:12.06719971;stroke-linecap:butt;stroke-linejoin:miter;stroke-miterlimit:4;stroke-opacity:1;stroke-dasharray:none"
         id="path3579" />
    </g>
    <path
       inkscape:connector-curvature="0"
       d="m 246.34449,681.91275 -137.49113,96.465"
       style="fill:none;stroke:#808080;stroke-width:0.41747999;stroke-linecap:butt;stroke-linejoin:miter;stroke-miterlimit:4;stroke-opacity:1;stroke-dasharray:none"
       id="path3581" />
    <path
       inkscape:connector-curvature="0"
       d="M 292.21824,649.68775 244.96199,682.8465"
       style="fill:none;stroke:#808080;stroke-width:0.41747999;stroke-linecap:butt;stroke-linejoin:miter;stroke-miterlimit:4;stroke-opacity:1;stroke-dasharray:1.2524375, 1.2524375;stroke-dashoffset:0"
       id="path3583" />
    <path
       inkscape:connector-curvature="0"
       d="m 110.26449,778.4515 c 0,0.875 -0.71,1.585 -1.5865,1.585 -0.87688,0 -1.58538,-0.71 -1.58538,-1.585 0,-0.8775 0.7085,-1.58625 1.58538,-1.58625 0.8765,0 1.5865,0.70875 1.5865,1.58625 z"
       style="fill:#000000;fill-opacity:1;fill-rule:nonzero;stroke:none"
       id="path3585" />
    <path
       inkscape:connector-curvature="0"
       d="m 110.26449,778.4515 c 0,0.875 -0.71,1.585 -1.5865,1.585 -0.87688,0 -1.58538,-0.71 -1.58538,-1.585 0,-0.8775 0.7085,-1.58625 1.58538,-1.58625 0.8765,0 1.5865,0.70875 1.5865,1.58625 z"
       style="fill:none;stroke:#000000;stroke-width:0.19047751;stroke-linecap:butt;stroke-linejoin:miter;stroke-miterlimit:4;stroke-opacity:1;stroke-dasharray:none"
       id="path3587" />
    <path
       inkscape:connector-curvature="0"
       d="m 108.82936,778.2715 23.52388,-16.495"
       style="fill:none;stroke:#000000;stroke-width:0.83495998;stroke-linecap:butt;stroke-linejoin:miter;stroke-miterlimit:4;stroke-opacity:1;stroke-dasharray:none"
       id="path3589" />
    <path
       inkscape:connector-curvature="0"
       d="m 127.61574,762.62775 5.6375,-1.49625 -3.32625,4.795 c 0.0325,-1.47625 -0.905,-2.805 -2.31125,-3.29875 z"
       style="fill:#000000;fill-opacity:1;fill-rule:evenodd;stroke:none"
       id="path3591" />
    <path
       inkscape:connector-curvature="0"
       d="m 108.37186,778.35775 23.50388,13.53375"
       style="fill:none;stroke:#000000;stroke-width:0.83495998;stroke-linecap:butt;stroke-linejoin:miter;stroke-miterlimit:4;stroke-opacity:1;stroke-dasharray:none"
       id="path3593" />
    <path
       inkscape:connector-curvature="0"
       d="m 129.09574,787.96275 3.7425,4.4725 -5.74875,-0.98625 c 1.35,-0.5925 2.15625,-2.00625 2.00625,-3.48625 z"
       style="fill:#000000;fill-opacity:1;fill-rule:evenodd;stroke:none"
       id="path3595" />
    <path
       inkscape:connector-curvature="0"
       d="m 108.59211,777.68775 -0.0361,27.32"
       style="fill:none;stroke:#000000;stroke-width:0.83495998;stroke-linecap:butt;stroke-linejoin:miter;stroke-miterlimit:4;stroke-opacity:1;stroke-dasharray:none"
       id="path3597" />
    <path
       inkscape:connector-curvature="0"
       d="m 110.58074,800.6415 -2.0165,5.47125 -2.00625,-5.47625 c 1.187,0.8775 2.81287,0.8725 4.02275,0.005 z"
       style="fill:#000000;fill-opacity:1;fill-rule:evenodd;stroke:none"
       id="path3599" />
    <path
       inkscape:connector-curvature="0"
       d="m 247.80824,681.87525 c 0,0.8775 -0.71375,1.5875 -1.59125,1.5875 -0.875,0 -1.585,-0.71 -1.585,-1.5875 0,-0.87625 0.71,-1.58875 1.585,-1.58875 0.8775,0 1.59125,0.7125 1.59125,1.58875 z"
       style="fill:#808080;fill-opacity:1;fill-rule:nonzero;stroke:none"
       id="path3601" />
    <path
       inkscape:connector-curvature="0"
       d="m 247.80824,681.87525 c 0,0.8775 -0.71375,1.5875 -1.59125,1.5875 -0.875,0 -1.585,-0.71 -1.585,-1.5875 0,-0.87625 0.71,-1.58875 1.585,-1.58875 0.8775,0 1.59125,0.7125 1.59125,1.58875 z"
       style="fill:none;stroke:#000000;stroke-width:0.19047751;stroke-linecap:butt;stroke-linejoin:miter;stroke-miterlimit:4;stroke-opacity:1;stroke-dasharray:none"
       id="path3603" />
    <g
       id="g3605"
       transform="matrix(1.25,0,0,-1.25,-15.184262,1071.4265)">
      <text
         transform="matrix(1,0,0,-1,85.0648,196.541)"
         id="text3607">
        <tspan
           style="font-size:6.67967987px;font-variant:normal;writing-mode:lr-tb;fill:#000000;fill-opacity:1;fill-rule:nonzero;stroke:none;font-family:DroidSans-Identity;-inkscape-font-specification:DroidSans-Identity-H"
           x="0 3.9353776 7.5079627 11.415993 14.988578 17.647581 21.220173 22.951775 26.038523 29.580353 35.558681 39.131271 41.723564"
           y="0"
           sodipodi:role="line"
           id="tspan3609" />
      </text>
    </g>
    <path
       inkscape:connector-curvature="0"
       d="m 181.47574,601.099 15.1625,6.3975"
       style="fill:none;stroke:#000000;stroke-width:0.83495998;stroke-linecap:butt;stroke-linejoin:miter;stroke-miterlimit:4;stroke-opacity:1;stroke-dasharray:none"
       id="path3611" />
    <path
       inkscape:connector-curvature="0"
       d="m 193.40074,603.9365 4.26125,3.97875 -5.82625,-0.26875 c 1.2675,-0.7575 1.895,-2.25875 1.565,-3.71 z"
       style="fill:#000000;fill-opacity:1;fill-rule:evenodd;stroke:none"
       id="path3613" />
    <path
       inkscape:connector-curvature="0"
       d="m 182.14449,600.989 -0.04,14.41625"
       style="fill:none;stroke:#000000;stroke-width:0.83495998;stroke-linecap:butt;stroke-linejoin:miter;stroke-miterlimit:4;stroke-opacity:1;stroke-dasharray:none"
       id="path3615" />
    <path
       inkscape:connector-curvature="0"
       d="m 184.13824,611.04275 -2.03,5.47125 -1.9975,-5.48 c 1.185,0.8775 2.8125,0.8775 4.0275,0.009 z"
       style="fill:#000000;fill-opacity:1;fill-rule:evenodd;stroke:none"
       id="path3617" />
    <path
       inkscape:connector-curvature="0"
       d="m 273.18324,696.019 -164.2445,82.7375"
       style="fill:none;stroke:#000000;stroke-width:0.4539625;stroke-linecap:butt;stroke-linejoin:miter;stroke-miterlimit:4;stroke-opacity:1;stroke-dasharray:none"
       id="path3619" />
    <path
       inkscape:connector-curvature="0"
       d="m 275.83699,695.61525 c 0,0.88 -0.70875,1.59 -1.58625,1.59 -0.87625,0 -1.59,-0.71 -1.59,-1.59 0,-0.87625 0.71375,-1.58625 1.59,-1.58625 0.8775,0 1.58625,0.71 1.58625,1.58625 z"
       style="fill:#808080;fill-opacity:1;fill-rule:nonzero;stroke:none"
       id="path3621" />
    <path
       inkscape:connector-curvature="0"
       d="m 275.83699,695.61525 c 0,0.88 -0.70875,1.59 -1.58625,1.59 -0.87625,0 -1.59,-0.71 -1.59,-1.59 0,-0.87625 0.71375,-1.58625 1.59,-1.58625 0.8775,0 1.58625,0.71 1.58625,1.58625 z"
       style="fill:none;stroke:#000000;stroke-width:0.19047751;stroke-linecap:butt;stroke-linejoin:miter;stroke-miterlimit:4;stroke-opacity:1;stroke-dasharray:none"
       id="path3623" />
    <path
       inkscape:connector-curvature="0"
       d="m 246.40574,630.119 -0.0738,48.6425"
       style="fill:none;stroke:#808080;stroke-width:0.41747999;stroke-linecap:butt;stroke-linejoin:miter;stroke-miterlimit:4;stroke-opacity:1;stroke-dasharray:1.2524375, 1.2524375;stroke-dashoffset:0"
       id="path3625" />
    <path
       inkscape:connector-curvature="0"
       d="m 182.93199,655.6115 62.695,26.15375"
       style="fill:none;stroke:#808080;stroke-width:0.41747999;stroke-linecap:butt;stroke-linejoin:miter;stroke-miterlimit:4;stroke-opacity:1;stroke-dasharray:1.2524375, 1.2524375;stroke-dashoffset:0"
       id="path3627" />
    <path
       inkscape:connector-curvature="0"
       d="m 183.66574,601.5765 c 0,0.87625 -0.71375,1.585 -1.59125,1.585 -0.87625,0 -1.585,-0.70875 -1.585,-1.585 0,-0.87625 0.70875,-1.59 1.585,-1.59 0.8775,0 1.59125,0.71375 1.59125,1.59 z"
       style="fill:#000000;fill-opacity:1;fill-rule:nonzero;stroke:none"
       id="path3629" />
    <path
       inkscape:connector-curvature="0"
       d="m 183.66574,601.5765 c 0,0.87625 -0.71375,1.585 -1.59125,1.585 -0.87625,0 -1.585,-0.70875 -1.585,-1.585 0,-0.87625 0.70875,-1.59 1.585,-1.59 0.8775,0 1.59125,0.71375 1.59125,1.59 z"
       style="fill:none;stroke:#000000;stroke-width:0.19047751;stroke-linecap:butt;stroke-linejoin:miter;stroke-miterlimit:4;stroke-opacity:1;stroke-dasharray:none"
       id="path3631" />
    <path
       inkscape:connector-curvature="0"
       d="m 246.34824,625.16525 c 0.0937,0.375 0.39125,0.71375 0.74625,0.8525 0.28625,0.11375 0.48125,-0.004 0.61125,-0.21625 0.14375,-0.245 0.24875,-0.71 0.24875,-0.72625 0,-0.09 -0.065,-0.11375 -0.0888,-0.12625 -0.0937,-0.0362 -0.0937,0.004 -0.11875,0.11125 -0.11875,0.42375 -0.27375,0.92375 -0.6275,0.78625 -0.1675,-0.07 -0.26125,-0.20875 -0.26125,-0.48125 0,-0.18375 0.10625,-0.53375 0.17125,-0.8075 l 0.2325,-0.8075 c 0.0288,-0.11 0.10625,-0.39125 0.14625,-0.505 0.0375,-0.17875 0.11375,-0.465 0.11375,-0.51375 0,-0.14625 -0.11375,-0.26875 -0.23125,-0.31375 -0.0412,-0.0162 -0.26125,-0.09 -0.32625,0.15875 -0.15875,0.55 -0.5225,1.8675 -0.6275,2.25875 -0.0125,0.0325 -0.34,0.57125 -0.95125,0.33 -0.43125,-0.17125 -0.50875,-0.5775 -0.50875,-0.88 0,-0.47 0.2325,-1.02875 0.44375,-1.52125 0.1025,-0.22 0.14375,-0.3225 0.14375,-0.47625 0,-0.3675 -0.26125,-0.7825 -0.6825,-0.94625 -0.79375,-0.315 -1.09125,0.7825 -1.09125,0.84875 0,0.0888 0.0775,0.12125 0.0888,0.125 0.09,0.0375 0.09,0.009 0.13,-0.10625 0.21,-0.635 0.535,-0.81875 0.84875,-0.6975 0.0775,0.0338 0.2075,0.095 0.2075,0.355 0,0.19625 -0.0888,0.40875 -0.1425,0.50625 -0.31375,0.71375 -0.48125,1.15375 -0.48125,1.5575 0,0.79875 0.57125,1.23125 1.01625,1.40625 0.54875,0.21625 0.8475,-0.045 0.99,-0.17125 z"
       style="fill:#000000;fill-opacity:1;fill-rule:nonzero;stroke:none"
       id="path3633" />
    <path
       inkscape:connector-curvature="0"
       d="m 251.20449,626.93525 c 0,-0.64125 -0.0787,-1.1375 -0.33875,-1.6475 -0.18375,-0.33 -0.55,-0.71 -1.00625,-0.88875 -1.35875,-0.535 -1.35875,1.06 -1.35875,1.47625 0,0.415 0,1.96875 1.35875,2.5025 1.345,0.52625 1.345,-1.0225 1.345,-1.4425 z m -1.345,1.27125 c -0.27375,-0.10625 -0.62375,-0.39875 -0.7425,-0.9175 -0.0775,-0.37 -0.0775,-0.85125 -0.0775,-1.28375 0,-0.4275 0,-0.8725 0.0775,-1.15375 0.13,-0.4075 0.4925,-0.395 0.7425,-0.2975 0.3125,0.12625 0.615,0.43625 0.71625,0.82 0.095,0.34625 0.10625,0.77 0.10625,1.28 0,0.4275 0,0.86 -0.0775,1.195 -0.1175,0.48875 -0.51,0.45125 -0.745,0.3575 z"
       style="fill:#000000;fill-opacity:1;fill-rule:nonzero;stroke:none"
       id="path3635" />
    <path
       inkscape:connector-curvature="0"
       d="m 177.34574,652.14275 c 0,-0.4575 -0.22375,-0.71 -0.36625,-0.79125 -0.20875,-0.11375 -0.41625,-0.0125 -0.41625,0.17125 0,0.10625 0.0362,0.18 0.13,0.3225 0.18,0.27375 0.28625,0.5375 0.28625,0.84 0,0.35 -0.51,1.96875 -1.47625,1.43125 -0.42875,-0.24125 -0.62375,-0.63625 -0.62375,-1.08125 0,-0.45625 0.2325,-0.9375 0.48125,-1.49125 0.065,-0.10625 0.105,-0.205 0.105,-0.35875 0,-0.36875 -0.26,-0.82375 -0.68,-1.06125 -0.7825,-0.43625 -1.0925,0.60375 -1.0925,0.66875 0,0.09 0.0775,0.135 0.09,0.14375 0.0888,0.0487 0.0888,0.0237 0.13,-0.0863 0.24875,-0.69625 0.59875,-0.6925 0.84875,-0.555 0.065,0.0375 0.2075,0.115 0.2075,0.37625 0,0.21125 -0.09,0.395 -0.1425,0.50875 -0.3675,0.75875 -0.46875,1.08 -0.46875,1.44375 0,0.90125 0.72875,1.43875 1.1075,1.65125 1.395,0.7825 1.88,-1.7 1.88,-2.1325 z"
       style="fill:#000000;fill-opacity:1;fill-rule:nonzero;stroke:none"
       id="path3637" />
    <path
       inkscape:connector-curvature="0"
       d="m 180.47699,656.3815 c 0,-0.63875 -0.0775,-1.1525 -0.3375,-1.7025 -0.18375,-0.36375 -0.55,-0.8 -1.0075,-1.05625 -1.35875,-0.75875 -1.35875,0.83125 -1.35875,1.2475 0,0.42 0,1.97375 1.35875,2.73125 1.345,0.75 1.345,-0.8025 1.345,-1.22 z m -1.345,1.04875 c -0.27375,-0.15125 -0.62375,-0.505 -0.7425,-1.04 -0.0775,-0.3825 -0.0775,-0.8675 -0.0775,-1.29625 0,-0.43125 0,-0.87625 0.0775,-1.145 0.13125,-0.38375 0.49375,-0.31 0.7425,-0.1725 0.31375,0.17625 0.615,0.53875 0.7175,0.93875 0.0937,0.3625 0.10625,0.7875 0.10625,1.29625 0,0.4325 0,0.86 -0.0775,1.1825 -0.11875,0.46875 -0.50875,0.36625 -0.74625,0.23625 z"
       style="fill:#000000;fill-opacity:1;fill-rule:nonzero;stroke:none"
       id="path3639" />
    <path
       inkscape:connector-curvature="0"
       d="m 103.41874,780.9415 c 0,-0.0863 -0.0649,-0.11 -0.13038,-0.11 -0.0899,0 -0.685,0.11 -1.0805,0.73 -0.48537,0.74625 -1.17,1.14625 -1.98487,1.14625 -1.345252,0 -2.401877,-0.995 -2.401877,-3.0225 0,-0.99 0.330125,-2.69 1.32025,-4.16625 0.705625,-0.99 1.520997,-1.52 2.735877,-1.52 0.52587,0 0.88087,0.175 0.88087,0.72875 0,0.24125 -0.0649,0.50625 -0.22025,0.83625 -0.15475,0.33 -0.31,0.64 -0.39987,0.795 -0.15038,0.28625 -0.15038,0.33125 -0.15038,0.35125 0,0.0888 0.0859,0.0888 0.15038,0.0888 0.26512,0 0.77537,-0.26375 0.99562,-0.55 0.0649,-0.0688 0.33013,-0.595 0.48438,-0.97 0.35062,-0.77125 0.35062,-0.97 0.35062,-1.17 0,-0.705 -0.52887,-0.88 -1.16562,-0.88 -1.54488,0 -3.176252,0.835 -4.276252,2.07 -1.36625,1.545 -1.896,3.61625 -1.896,4.9825 0,2.095 1.056125,3.19625 2.6665,3.19625 2.271002,0 4.121502,-2.18125 4.121502,-2.53625 z"
       style="fill:#000000;fill-opacity:1;fill-rule:nonzero;stroke:none"
       id="path3641" />
    <path
       inkscape:connector-curvature="0"
       d="m 278.80949,701.894 c 0,0.195 0,0.22875 -0.16375,0.44 -0.42375,0.61625 -0.94125,0.73 -1.2525,0.73 -0.6475,0 -1.2625,-0.6 -1.2625,-1.98125 0,-1.475 0.7625,-1.96125 1.37875,-1.96125 0.795,0 1.3,0.8275 1.3,1.345 l 0,1.4275 z m 1.81375,3.49 0,-0.485 -0.7125,0 0,-6.185 -0.42125,0 -0.55,0.81125 c -0.35875,-0.50125 -0.94125,-0.81125 -1.56125,-0.81125 -1.5075,0 -2.57625,0.925 -2.57625,2.3525 0,1.4625 1.05125,2.36875 2.4825,2.36875 0.5175,0 0.97125,-0.1425 1.45875,-0.56625 l 0,2.03 -0.7125,0 0,0.485 c 0.28875,-0.0163 0.90875,-0.0338 1.29625,-0.0338 0.40875,0 1.0225,0.0175 1.29625,0.0338 z"
       style="fill:#000000;fill-opacity:1;fill-rule:nonzero;stroke:none"
       id="path3645" />
    <path
       inkscape:connector-curvature="0"
       d="m 137.83324,790.4165 -0.69,-1.655 c -0.0288,-0.065 -0.0412,-0.10625 -0.0412,-0.10625 0,-0.0525 0.13125,-0.2075 0.485,-0.24875 0.09,-0.0113 0.16875,-0.0113 0.16875,-0.155 0,-0.105 -0.1025,-0.105 -0.1325,-0.105 -0.3375,0 -0.68875,0.0275 -1.0425,0.0275 -0.20875,0 -0.7175,-0.0275 -0.925,-0.0275 -0.0538,0 -0.15625,0 -0.15625,0.17 0,0.09 0.09,0.09 0.19625,0.09 0.49375,0 0.54625,0.0825 0.62375,0.26125 l 0.97875,2.32375 -1.76125,1.8925 c -0.0375,0.04 -0.0525,0.0512 -0.10125,0.09 -0.40875,0.4425 -0.8,0.5725 -1.2275,0.6025 -0.10625,0.0113 -0.18375,0.0113 -0.18375,0.1675 0,0.0125 0,0.0937 0.11875,0.0937 0.24875,0 0.52125,-0.03 0.77,-0.03 0.31,0 0.63625,0.03 0.9375,0.03 0.0525,0 0.1425,0 0.1425,-0.17125 0,-0.0788 -0.0775,-0.09 -0.09,-0.09 -0.0763,0 -0.3375,-0.03 -0.3375,-0.26125 0,-0.13 0.13,-0.26 0.22,-0.36625 l 0.86,-0.90125 c 0.24875,-0.27375 0.575,-0.6125 0.74625,-0.82 l 0.8325,1.99375 c 0.04,0.0937 0.0525,0.0937 0.0525,0.1175 0,0.0662 -0.1675,0.2075 -0.48125,0.2375 -0.0937,0.0113 -0.1725,0.0113 -0.1725,0.155 0,0.10625 0.0937,0.10625 0.12,0.10625 0.235,0 0.8225,-0.03 1.05625,-0.03 0.2075,0 0.71625,0.03 0.925,0.03 0.0525,0 0.15875,0 0.15875,-0.16 0,-0.10125 -0.0937,-0.10125 -0.15875,-0.10125 -0.54625,0 -0.57125,-0.03 -0.7175,-0.3675 -0.31,-0.77 -0.8725,-2.075 -1.06875,-2.56875 0.5625,-0.58625 1.435,-1.58125 1.7075,-1.80125 0.2375,-0.20875 0.56375,-0.40375 1.0575,-0.4325 0.105,-0.0113 0.18375,-0.0113 0.18375,-0.1675 0,0 0,-0.0925 -0.1025,-0.0925 -0.24875,0 -0.53875,0.0275 -0.78375,0.0275 -0.31375,0 -0.6275,-0.0275 -0.92875,-0.0275 -0.05,0 -0.155,0 -0.155,0.17 0,0.0525 0.0412,0.0788 0.09,0.09 0.0813,0.0162 0.3425,0.0287 0.3425,0.26125 0,0.11875 -0.0937,0.22375 -0.16,0.30125 l -1.35625,1.4475 z"
       style="fill:#000000;fill-opacity:1;fill-rule:nonzero;stroke:none"
       id="path3647" />
    <path
       inkscape:connector-curvature="0"
       d="m 129.76824,754.404 c 0.0125,-0.04 0.025,-0.0762 0.025,-0.13 0,-0.0775 -0.0375,-0.0775 -0.20875,-0.0775 l -3.51,0 c -0.195,0 -0.2075,0.0125 -0.26125,0.1675 l -0.45625,1.5 c -0.0125,0.0412 -0.025,0.10625 -0.025,0.11875 0,0 0,0.0937 0.10625,0.0937 0.0775,0 0.09,-0.065 0.10125,-0.0937 0.3275,-0.97875 0.75875,-1.525 2.05125,-1.525 l 1.35375,0 -4.64375,5.2075 c 0,0 -0.0363,0.11375 -0.0363,0.14125 0,0.0775 0.0487,0.0775 0.2075,0.0775 l 3.6125,0 c 0.2075,0 0.2075,-0.0113 0.26125,-0.17125 l 0.59875,-1.8375 c 0,-0.025 0.0275,-0.09 0.0275,-0.12 0,-0.0475 -0.0275,-0.09 -0.105,-0.09 -0.0775,0 -0.0887,0.0263 -0.1425,0.21 -0.36625,1.12 -0.77,1.72375 -2.1775,1.72375 l -1.4225,0 4.64375,-5.195 z"
       style="fill:#000000;fill-opacity:1;fill-rule:nonzero;stroke:none"
       id="path3649" />
    <path
       inkscape:connector-curvature="0"
       d="m 110.39074,808.689 0.11375,-0.1175 c 0.24875,-0.24375 0.52125,-0.535 1.08375,-0.57125 0.09,-0.0163 0.17125,-0.0163 0.17125,-0.15875 0,-0.065 -0.04,-0.1025 -0.105,-0.1025 -0.22,0 -0.4575,0.025 -0.6775,0.025 -0.28875,0 -0.575,-0.025 -0.83625,-0.025 -0.0512,0 -0.1575,0 -0.1575,0.155 0,0.09 0.08,0.10625 0.1175,0.10625 0.065,0 0.30125,0.0125 0.30125,0.19625 0,0.1425 -0.195,0.35 -0.22375,0.39125 l -1.92838,2.23 -0.91312,-2.47875 c -0.0533,-0.1175 -0.0533,-0.13125 -0.0533,-0.1425 0,-0.19625 0.40387,-0.19625 0.49812,-0.19625 0.101,0 0.19475,0 0.19475,-0.17125 0,-0.09 -0.1055,-0.09 -0.13037,-0.09 -0.23588,0 -0.811,0.025 -1.04338,0.025 -0.212,0 -0.734,-0.025 -0.9415,-0.025 -0.0366,0 -0.15575,0 -0.15575,0.1675 0,0.0937 0.0899,0.0937 0.19638,0.0937 0.49362,0 0.53412,0.0775 0.61125,0.285 l 1.019,2.74 c 0.0123,0.025 0.0376,0.11875 0.0376,0.13 0,0.025 -0.33937,1.37125 -0.376,1.525 -0.10537,0.4575 -0.11762,0.485 -0.78262,0.485 -0.15875,0 -0.22463,0 -0.22463,0.1675 0,0.0937 0.0943,0.0937 0.11913,0.0937 0.22025,0 0.80662,-0.0275 1.044,-0.0275 0.23575,0 0.83487,0.0275 1.06737,0.0275 0.0531,0 0.15863,0 0.15863,-0.17125 0,-0.09 -0.0771,-0.09 -0.23588,-0.09 -0.0126,0 -0.167,0 -0.31387,-0.0113 -0.17975,-0.0163 -0.233,-0.0412 -0.233,-0.13 0,-0.0662 0.0781,-0.355 0.11925,-0.52125 0.1415,-0.565 0.16687,-0.6825 0.29725,-1.175 0.0406,-0.1725 0.0533,-0.18375 0.11775,-0.26125 l 2.06375,-2.3775 z"
       style="fill:#000000;fill-opacity:1;fill-rule:nonzero;stroke:none"
       id="path3651" />
    <path
       inkscape:connector-curvature="0"
       d="m 619.38949,751.07775 0,-28.73375"
       style="fill:none;stroke:#000000;stroke-width:0.83495998;stroke-linecap:butt;stroke-linejoin:miter;stroke-miterlimit:4;stroke-opacity:1;stroke-dasharray:none"
       id="path3653" />
    <path
       inkscape:connector-curvature="0"
       d="m 617.36824,726.714 2.0125,-5.475 2.015,5.475 c -1.19,-0.87625 -2.8175,-0.8725 -4.0275,0 z"
       style="fill:#000000;fill-opacity:1;fill-rule:evenodd;stroke:none"
       id="path3655" />
    <path
       inkscape:connector-curvature="0"
       d="m 619.11324,750.659 27.11875,0.13"
       style="fill:none;stroke:#000000;stroke-width:0.83495998;stroke-linecap:butt;stroke-linejoin:miter;stroke-miterlimit:4;stroke-opacity:1;stroke-dasharray:none"
       id="path3657" />
    <path
       inkscape:connector-curvature="0"
       d="m 641.87324,748.7465 5.465,2.0425 -5.48375,1.985 c 0.87875,-1.18625 0.88375,-2.80875 0.0187,-4.0275 z"
       style="fill:#000000;fill-opacity:1;fill-rule:evenodd;stroke:none"
       id="path3659" />
    <path
       inkscape:connector-curvature="0"
       d="M 619.36949,750.6865 605.85824,769.204"
       style="fill:none;stroke:#000000;stroke-width:0.83495998;stroke-linecap:butt;stroke-linejoin:miter;stroke-miterlimit:4;stroke-opacity:1;stroke-dasharray:none"
       id="path3661" />
    <path
       inkscape:connector-curvature="0"
       d="m 610.06574,766.869 -4.85125,3.23625 1.60125,-5.61 c 0.445,1.40625 1.7625,2.36 3.25,2.37375 z"
       style="fill:#000000;fill-opacity:1;fill-rule:evenodd;stroke:none"
       id="path3663" />
    <g
       id="g3665"
       transform="matrix(1.25,0,0,-1.25,-15.184262,1071.4265)">
      <text
         transform="matrix(1,0,0,-1,490.931,293.037)"
         id="text3667">
        <tspan
           style="font-size:6.67967987px;font-variant:normal;writing-mode:lr-tb;fill:#000000;fill-opacity:1;fill-rule:nonzero;stroke:none;font-family:DroidSans-Identity;-inkscape-font-specification:DroidSans-Identity-H"
           x="0 3.9353471 7.5079508 11.415993 14.988596 17.647587 21.22019 22.95178 28.930134 32.79007 36.72533 40.633373"
           y="0"
           sodipodi:role="line"
           id="tspan3669" />
      </text>
    </g>
    <path
       inkscape:connector-curvature="0"
       d="m 602.04199,773.7415 -0.6925,-1.65875 c -0.025,-0.0663 -0.0412,-0.1025 -0.0412,-0.1025 0,-0.0525 0.13,-0.2075 0.485,-0.24875 0.09,-0.0125 0.1675,-0.0125 0.1675,-0.15375 0,-0.10625 -0.1025,-0.10625 -0.13,-0.10625 -0.33875,0 -0.68875,0.0238 -1.04375,0.0238 -0.2075,0 -0.7175,-0.0238 -0.92625,-0.0238 -0.0525,0 -0.155,0 -0.155,0.17125 0,0.0888 0.09,0.0888 0.19625,0.0888 0.49375,0 0.54625,0.0775 0.62375,0.26125 l 0.97875,2.32375 -1.76125,1.89125 c -0.0375,0.0375 -0.05,0.05 -0.1025,0.09 -0.4025,0.445 -0.79375,0.575 -1.22625,0.6 -0.10625,0.0125 -0.18375,0.0125 -0.18375,0.17125 0,0.0113 0,0.0888 0.1175,0.0888 0.24875,0 0.5225,-0.0237 0.77125,-0.0237 0.31375,0 0.64,0.0237 0.9375,0.0237 0.0537,0 0.1425,0 0.1425,-0.16625 0,-0.0812 -0.0775,-0.0937 -0.0888,-0.0937 -0.0788,0 -0.34,-0.025 -0.34,-0.26125 0,-0.13125 0.13125,-0.26125 0.22125,-0.3625 l 0.86,-0.90125 c 0.24875,-0.2725 0.575,-0.61625 0.745,-0.82375 l 0.83625,1.9975 c 0.0362,0.09 0.05,0.09 0.05,0.11875 0,0.065 -0.1675,0.2075 -0.4825,0.2325 -0.0888,0.0125 -0.17,0.0125 -0.17,0.15875 0,0.10125 0.0937,0.10125 0.1175,0.10125 0.2375,0 0.82375,-0.0237 1.05625,-0.0237 0.21125,0 0.7175,0.0237 0.93,0.0237 0.0488,0 0.15375,0 0.15375,-0.15375 0,-0.10625 -0.09,-0.10625 -0.15375,-0.10625 -0.55125,0 -0.575,-0.025 -0.71875,-0.3625 -0.31375,-0.77125 -0.87625,-2.07625 -1.07125,-2.5725 0.5625,-0.5875 1.435,-1.57875 1.70875,-1.79875 0.235,-0.2125 0.5625,-0.4075 1.05875,-0.4325 0.1025,-0.0125 0.18,-0.0125 0.18,-0.17125 0,0 0,-0.0888 -0.1025,-0.0888 -0.24875,0 -0.53375,0.0238 -0.7825,0.0238 -0.31375,0 -0.6275,-0.0238 -0.925,-0.0238 -0.0537,0 -0.16,0 -0.16,0.17125 0,0.0488 0.0412,0.0763 0.0937,0.0888 0.0775,0.0125 0.33875,0.025 0.33875,0.26125 0,0.1175 -0.0925,0.22 -0.15875,0.3025 l -1.35375,1.44625 z"
       style="fill:#000000;fill-opacity:1;fill-rule:nonzero;stroke:none"
       id="path3671" />
    <path
       inkscape:connector-curvature="0"
       d="m 654.31324,749.1615 0.11375,-0.11375 c 0.24875,-0.24875 0.5225,-0.53875 1.085,-0.575 0.09,-0.0125 0.17125,-0.0125 0.17125,-0.15875 0,-0.065 -0.0412,-0.10125 -0.10625,-0.10125 -0.22125,0 -0.45625,0.0237 -0.67625,0.0237 -0.29,0 -0.575,-0.0237 -0.83625,-0.0237 -0.0537,0 -0.15875,0 -0.15875,0.15375 0,0.0937 0.0812,0.10625 0.1175,0.10625 0.065,0 0.3025,0.0125 0.3025,0.195 0,0.14375 -0.19625,0.35125 -0.225,0.3925 l -1.92875,2.23 -0.91375,-2.47875 c -0.0512,-0.11875 -0.0512,-0.13 -0.0512,-0.14375 0,-0.195 0.4025,-0.195 0.49625,-0.195 0.1025,0 0.19625,0 0.19625,-0.17125 0,-0.0888 -0.10625,-0.0888 -0.13,-0.0888 -0.2375,0 -0.8125,0.0237 -1.04375,0.0237 -0.2125,0 -0.73375,-0.0237 -0.9425,-0.0237 -0.0362,0 -0.155,0 -0.155,0.16625 0,0.0937 0.09,0.0937 0.195,0.0937 0.49375,0 0.535,0.0775 0.6125,0.285 l 1.01875,2.74 c 0.0125,0.0288 0.0375,0.11875 0.0375,0.13 0,0.03 -0.33875,1.37125 -0.375,1.52875 -0.10625,0.4575 -0.11875,0.4825 -0.7825,0.4825 -0.16,0 -0.225,0 -0.225,0.17 0,0.09 0.0937,0.09 0.11875,0.09 0.22,0 0.8075,-0.0237 1.0425,-0.0237 0.2375,0 0.83625,0.0237 1.07,0.0237 0.0512,0 0.1575,0 0.1575,-0.17125 0,-0.0888 -0.0762,-0.0888 -0.23625,-0.0888 -0.0113,0 -0.1675,0 -0.31375,-0.0137 -0.17875,-0.0113 -0.2325,-0.04 -0.2325,-0.13 0,-0.065 0.0775,-0.35375 0.1175,-0.52125 0.14375,-0.5625 0.1675,-0.68125 0.2975,-1.175 0.0413,-0.17125 0.0538,-0.1825 0.12,-0.26125 l 2.0625,-2.37625 z"
       style="fill:#000000;fill-opacity:1;fill-rule:nonzero;stroke:none"
       id="path3673" />
    <path
       inkscape:connector-curvature="0"
       d="m 621.69699,712.339 c 0.0125,-0.04 0.025,-0.0775 0.025,-0.13 0,-0.0775 -0.0375,-0.0775 -0.20875,-0.0775 l -3.51,0 c -0.195,0 -0.2075,0.0113 -0.26125,0.1675 l -0.455,1.49875 c -0.0137,0.0413 -0.025,0.10625 -0.025,0.11875 0,0 0,0.09 0.10625,0.09 0.0775,0 0.09,-0.065 0.10125,-0.09 0.32625,-0.97875 0.75875,-1.52375 2.05,-1.52375 l 1.35375,0 -4.6425,5.20125 c 0,0 -0.0375,0.11875 -0.0375,0.1475 0,0.0775 0.0488,0.0775 0.2075,0.0775 l 3.6125,0 c 0.20875,0 0.20875,-0.0125 0.26125,-0.17125 l 0.59875,-1.84 c 0,-0.0238 0.0287,-0.0888 0.0287,-0.1175 0,-0.0525 -0.0287,-0.09 -0.10625,-0.09 -0.0763,0 -0.0888,0.025 -0.1425,0.2075 -0.36625,1.12125 -0.77,1.72125 -2.17625,1.72125 l -1.42375,0 4.64375,-5.19 z"
       style="fill:#000000;fill-opacity:1;fill-rule:nonzero;stroke:none"
       id="path3675" />
    <path
       inkscape:connector-curvature="0"
       d="m 198.78199,602.57525 c 0.0537,-0.1875 0.24875,-0.87625 0.82375,-0.64 0.0412,0.0163 0.25,0.0975 0.41625,0.2725 -0.2325,-0.045 -0.39125,0.09 -0.39125,0.2975 0,0.13125 0.0937,0.3225 0.31375,0.41625 0.18375,0.0738 0.445,0.0362 0.445,-0.30125 0,-0.4325 -0.4825,-0.74625 -0.77125,-0.86375 -0.48125,-0.19625 -0.77,0.13 -0.8725,0.2675 -0.2075,-0.63125 -0.6525,-0.8925 -0.9,-0.99 -0.86,-0.355 -1.34625,0.52125 -1.34625,0.73 0,0.0888 0.0937,0.12625 0.10625,0.13375 0.065,0.025 0.09,0.009 0.10625,-0.0487 0.285,-0.77125 0.83125,-0.7575 1.12125,-0.64 0.15375,0.0663 0.445,0.26125 0.445,0.7425 0,0.26125 -0.1475,0.75 -0.445,1.8025 -0.13125,0.45625 -0.4325,0.68375 -0.79625,0.5375 -0.0513,-0.0238 -0.235,-0.0975 -0.41875,-0.2775 0.2075,0.0325 0.39125,-0.0612 0.39125,-0.29375 0,-0.22375 -0.18375,-0.3625 -0.2975,-0.41125 -0.26125,-0.10625 -0.4575,0.0238 -0.4575,0.2975 0,0.37875 0.40375,0.71375 0.7675,0.86 0.5625,0.22875 0.86375,-0.23625 0.875,-0.27 0.1025,0.34375 0.405,0.7925 0.9025,0.99625 0.86,0.35125 1.32875,-0.53 1.32875,-0.7375 0,-0.09 -0.065,-0.11875 -0.09,-0.1275 -0.0813,-0.0325 -0.0937,0 -0.1175,0.0412 -0.27375,0.79 -0.83625,0.75875 -1.0975,0.6525 -0.325,-0.135 -0.45625,-0.44875 -0.45625,-0.7375 0,-0.18 0.0413,-0.3475 0.13125,-0.6775 l 0.28375,-1.03125 z"
       style="fill:#000000;fill-opacity:1;fill-rule:nonzero;stroke:none"
       id="path3677" />
    <path
       inkscape:connector-curvature="0"
       d="m 178.21824,615.5765 c 0.0175,-0.0975 0.0125,-0.11 -0.004,-0.17125 -0.0413,-0.13875 -0.195,-0.26 -0.34625,-0.31375 -0.09,-0.0325 -0.225,-0.0362 -0.285,0.045 0,0.045 -0.025,0.2525 -0.0125,0.39125 -0.0213,0.175 -0.0175,0.37875 -0.0175,0.575 l -0.0362,1.2875 c 0,0.1025 -0.26125,0.5225 -0.8925,0.2975 -0.48125,-0.17125 -0.68125,-0.5625 -0.76625,-0.86375 -0.10125,-0.36375 -0.0737,-0.80625 0.045,-1.39875 0.0613,-0.2725 0.0812,-0.34625 0.0362,-0.51 -0.0975,-0.35375 -0.48125,-0.76125 -0.96125,-0.93375 -0.91375,-0.32125 -0.93875,0.72625 -0.9175,0.7875 0.0237,0.09 0.11375,0.11875 0.12625,0.12625 0.105,0.0375 0.0975,0.0125 0.10875,-0.0975 0.0625,-0.66 0.3725,-0.76625 0.7025,-0.6475 0.0725,0.0275 0.24,0.085 0.31,0.3375 0.0525,0.2 0.007,0.375 -0.009,0.50625 -0.155,0.7175 -0.195,1.10875 -0.09,1.4875 0.19625,0.7175 0.86375,1.17 1.435,1.37 0.37625,0.13375 0.64875,0.11 0.8575,-0.02 -0.005,0.37 -0.0125,0.72875 -0.27,1.0225 -0.18375,0.175 -0.47625,0.28625 -0.9125,0.13 -0.135,-0.0475 -0.575,-0.2275 -0.8275,-0.59875 0.15,0.0537 0.28375,0.1025 0.37375,0.045 0.09,-0.0287 0.1475,-0.11 0.10625,-0.26125 -0.0687,-0.24875 -0.33,-0.36625 -0.42,-0.4 -0.22375,-0.0775 -0.505,-0.0638 -0.39875,0.3275 0.11,0.40375 0.615,0.85125 1.215,1.06375 0.97375,0.34625 1.765,-0.0288 1.785,-0.84 l 0.065,-2.74375 z"
       style="fill:#000000;fill-opacity:1;fill-rule:nonzero;stroke:none"
       id="path3679" />
    <path
       inkscape:connector-curvature="0"
       d="m 168.06324,727.6715 0.7175,0 c 0.16625,0 0.2475,0 0.2475,-0.16625 0,-0.0937 -0.0813,-0.0937 -0.2225,-0.0937 l -0.69,0 c 0.09,-0.48125 0.0775,-0.46875 0.1675,-0.95 0.0412,-0.17125 0.15875,-0.75875 0.20875,-0.86375 0.0637,-0.15625 0.21125,-0.28625 0.39125,-0.28625 0.0275,0 0.2475,0 0.40625,0.155 -0.36625,0.0288 -0.45625,0.32625 -0.45625,0.445 0,0.195 0.155,0.30125 0.31,0.30125 0.225,0 0.45625,-0.19625 0.45625,-0.51 0,-0.37875 -0.375,-0.57375 -0.71625,-0.57375 -0.28625,0 -0.80875,0.15875 -1.05625,0.9775 -0.0538,0.17125 -0.0775,0.26125 -0.27375,1.305 l -0.575,0 c -0.1675,0 -0.26,0 -0.26,0.16 0,0.1 0.0775,0.1 0.23625,0.1 l 0.54625,0 -0.61125,3.29125 c -0.16,0.8075 -0.3025,1.56625 -0.73125,1.56625 -0.04,0 -0.235,0 -0.40625,-0.16 0.39125,-0.0238 0.4725,-0.32625 0.4725,-0.445 0,-0.195 -0.16,-0.2975 -0.315,-0.2975 -0.22375,0 -0.455,0.19625 -0.455,0.51 0,0.3625 0.36125,0.57 0.70375,0.57 0.4575,0 0.79625,-0.4925 0.93875,-0.80625 0.2725,-0.5225 0.45625,-1.525 0.46875,-1.59 l 0.4975,-2.63875 z"
       style="fill:#000000;fill-opacity:1;fill-rule:nonzero;stroke:none"
       id="path3681" />
    <path
       inkscape:connector-curvature="0"
       d="m 172.08324,730.3965 c 0,-0.64125 -0.0775,-1.11 -0.33875,-1.5175 -0.18375,-0.26125 -0.55,-0.4925 -1.0075,-0.4925 -1.35375,0 -1.35375,1.58875 -1.35375,2.01 0,0.415 0,1.9675 1.35375,1.9675 1.34625,0 1.34625,-1.5525 1.34625,-1.9675 z m -1.34625,1.7975 c -0.27375,0 -0.62375,-0.155 -0.74125,-0.62375 -0.0775,-0.34375 -0.0775,-0.825 -0.0775,-1.25625 0,-0.4275 0,-0.8725 0.0775,-1.18625 0.13,-0.45625 0.4975,-0.5875 0.74125,-0.5875 0.315,0 0.61625,0.19625 0.71875,0.535 0.0925,0.31375 0.105,0.7325 0.105,1.23875 0,0.43125 0,0.865 -0.0775,1.2275 -0.1175,0.53375 -0.50875,0.6525 -0.74625,0.6525 z"
       style="fill:#000000;fill-opacity:1;fill-rule:nonzero;stroke:none"
       id="path3683" />
    <g
       id="g3685"
       transform="matrix(1.25,0,0,-1.25,-15.184262,1071.4265)">
      <text
         transform="matrix(1,0,0,-1,112.02,374.049)"
         id="text3687">
        <tspan
           style="font-size:6.67967987px;font-variant:normal;writing-mode:lr-tb;fill:#000000;fill-opacity:1;fill-rule:nonzero;stroke:none;font-family:DroidSans-Identity;-inkscape-font-specification:DroidSans-Identity-H"
           x="0 3.9353716 7.5079627 11.415993 14.988585 17.647587 21.220179 22.95178 24.676544 30.66172 34.203552 37.663628"
           y="0"
           sodipodi:role="line"
           id="tspan3689" />
      </text>
    </g>
    <g
       id="g3691"
       transform="matrix(1.25,0,0,-1.25,-15.184262,1071.4265)">
      <text
         transform="matrix(1,0,0,-1,305.97,169.535)"
         id="text3693">
        <tspan
           style="font-size:6.67967987px;font-variant:normal;writing-mode:lr-tb;fill:#008080;fill-opacity:1;fill-rule:nonzero;stroke:none;font-family:DroidSans-Identity;-inkscape-font-specification:DroidSans-Identity-H"
           x="0 3.6752791 5.4654331 7.1970229 11.043371 14.585203 17.177494 20.719326 26.704515 30.277094 32.542435 35.194881 38.76746 41.778851 43.510441 47.083019 50.422859 52.688198 55.347214 57.07869 61.01395 64.025337 67.676628 71.584671 75.513214 79.085793"
           y="0"
           sodipodi:role="line"
           id="tspan3695" />
        <tspan
           style="font-size:6.67967987px;font-variant:normal;writing-mode:lr-tb;fill:#008080;fill-opacity:1;fill-rule:nonzero;stroke:none;font-family:DroidSans-Identity;-inkscape-font-specification:DroidSans-Identity-H"
           x="-147.151 -143.47571 -141.68555 -139.95395 -136.1076 -132.56577 -129.97348 -126.43165 -120.44647 -116.87388 -114.60854 -111.95609 -108.3835 -105.37212 -103.64051 -101.90902 -97.973763 -95.708427 -93.049408 -91.317932 -87.382675 -84.371284 -80.798706 -76.795937 -72.867393 -69.294807"
           y="-247.991"
           sodipodi:role="line"
           id="tspan3697" />
      </text>
    </g>
    <g
       id="g3699"
       transform="matrix(0.099583,0.04224425,0,0.10817275,-15.184262,1071.4265)">
      <path
         inkscape:connector-curvature="0"
         d="m 3223.89,-6397.25 1242.28,-0.01 0,1064.91 -1242.28,0.02 0,-1064.92 z"
         style="fill:none;stroke:#000000;stroke-width:12.06719971;stroke-linecap:butt;stroke-linejoin:miter;stroke-miterlimit:4;stroke-opacity:1;stroke-dasharray:none"
         id="path3701" />
    </g>
    <path
       inkscape:connector-curvature="0"
       d="m 415.50949,562.9015 -50.37875,35.34375"
       style="fill:none;stroke:#808080;stroke-width:0.41747999;stroke-linecap:butt;stroke-linejoin:miter;stroke-miterlimit:4;stroke-opacity:1;stroke-dasharray:1.2524375, 1.2524375;stroke-dashoffset:0"
       id="path3703" />
    <path
       inkscape:connector-curvature="0"
       d="M 305.98574,679.54025 274.95699,695.1715"
       style="fill:none;stroke:#000000;stroke-width:0.41747999;stroke-linecap:butt;stroke-linejoin:miter;stroke-miterlimit:4;stroke-opacity:1;stroke-dasharray:1.2524375, 1.2524375;stroke-dashoffset:0"
       id="path3705" />
    <path
       inkscape:connector-curvature="0"
       d="m 406.09949,629.0465 -99.3025,50.025"
       style="fill:none;stroke:#000000;stroke-width:0.41747999;stroke-linecap:butt;stroke-linejoin:miter;stroke-miterlimit:4;stroke-opacity:1;stroke-dasharray:none"
       id="path3707" />
    <path
       inkscape:connector-curvature="0"
       d="m 429.05324,617.549 -21.24,10.7025"
       style="fill:none;stroke:#000000;stroke-width:0.41747999;stroke-linecap:butt;stroke-linejoin:miter;stroke-miterlimit:4;stroke-opacity:1;stroke-dasharray:1.2524375, 1.2524375;stroke-dashoffset:0"
       id="path3709" />
    <path
       inkscape:connector-curvature="0"
       d="m 496.65324,583.56025 -66.6375,33.565"
       style="fill:none;stroke:#000000;stroke-width:0.41747999;stroke-linecap:butt;stroke-linejoin:miter;stroke-miterlimit:4;stroke-opacity:1;stroke-dasharray:none"
       id="path3711" />
    <g
       id="g3713"
       transform="matrix(1.25,0,0,-1.25,-15.184262,1071.4265)">
      <text
         transform="matrix(1,0,0,-1,255.638,447.886)"
         id="text3715">
        <tspan
           style="font-size:6.67967987px;font-variant:normal;writing-mode:lr-tb;fill:#000000;fill-opacity:1;fill-rule:nonzero;stroke:none;font-family:DroidSans-Identity;-inkscape-font-specification:DroidSans-Identity-H"
           x="0 3.9353716 7.5079508 11.415993 14.988572 17.647587 21.220167 22.951756 25.604204 29.176785 31.442123 33.173599 37.10886"
           y="0"
           sodipodi:role="line"
           id="tspan3717" />
      </text>
    </g>
    <path
       inkscape:connector-curvature="0"
       d="m 498.87574,583.29525 c 0,0.87625 -0.71,1.59 -1.58625,1.59 -0.8775,0 -1.59,-0.71375 -1.59,-1.59 0,-0.8775 0.7125,-1.585 1.59,-1.585 0.87625,0 1.58625,0.7075 1.58625,1.585 z"
       style="fill:#000000;fill-opacity:1;fill-rule:nonzero;stroke:none"
       id="path3719" />
    <path
       inkscape:connector-curvature="0"
       d="m 498.87574,583.29525 c 0,0.87625 -0.71,1.59 -1.58625,1.59 -0.8775,0 -1.59,-0.71375 -1.59,-1.59 0,-0.8775 0.7125,-1.585 1.59,-1.585 0.87625,0 1.58625,0.7075 1.58625,1.585 z"
       style="fill:none;stroke:#000000;stroke-width:0.19047751;stroke-linecap:butt;stroke-linejoin:miter;stroke-miterlimit:4;stroke-opacity:1;stroke-dasharray:none"
       id="path3721" />
    <path
       inkscape:connector-curvature="0"
       d="m 408.13074,628.8665 c 0,0.8775 -0.71,1.59125 -1.58625,1.59125 -0.87625,0 -1.59,-0.71375 -1.59,-1.59125 0,-0.87625 0.71375,-1.585 1.59,-1.585 0.87625,0 1.58625,0.70875 1.58625,1.585 z"
       style="fill:#808080;fill-opacity:1;fill-rule:nonzero;stroke:none"
       id="path3723" />
    <path
       inkscape:connector-curvature="0"
       d="m 408.13074,628.8665 c 0,0.8775 -0.71,1.59125 -1.58625,1.59125 -0.87625,0 -1.59,-0.71375 -1.59,-1.59125 0,-0.87625 0.71375,-1.585 1.59,-1.585 0.87625,0 1.58625,0.70875 1.58625,1.585 z"
       style="fill:none;stroke:#000000;stroke-width:0.19047751;stroke-linecap:butt;stroke-linejoin:miter;stroke-miterlimit:4;stroke-opacity:1;stroke-dasharray:none"
       id="path3725" />
    <path
       inkscape:connector-curvature="0"
       d="m 407.68949,635.60275 0,0.485 c 0.29,-0.0163 0.90625,-0.0325 1.29625,-0.0325 0.40375,0 1.02375,0.0163 1.2975,0.0325 l 0,-0.485 -0.71375,0 0,-2.16125 c 0,-1.13375 0.90875,-1.63875 1.55625,-1.63875 0.34375,0 0.57125,0.2125 0.57125,1.0075 l 0,2.7925 -0.71625,0 0,0.485 c 0.2925,-0.0163 0.90875,-0.0325 1.31625,-0.0325 0.40375,0 1.00625,0.0163 1.29625,0.0325 l 0,-0.485 -0.71375,0 0,-2.16125 c 0,-1.13375 0.8925,-1.63875 1.54125,-1.63875 0.35875,0 0.5825,0.2125 0.5825,1.0075 l 0,2.7925 -0.7125,0 0,0.485 c 0.29375,-0.0163 0.90875,-0.0325 1.30125,-0.0325 0.4025,0 1.01875,0.0163 1.31125,0.0325 l 0,-0.485 -0.7125,0 0,-2.67875 c 0,-1.07125 -0.535,-1.4925 -1.60625,-1.4925 -0.9425,0 -1.47625,0.5175 -1.75375,0.99 -0.195,-0.9575 -1.14875,-0.99 -1.54,-0.99 -0.91,0 -1.4925,0.46875 -1.835,1.1175 l 0,-1.1175 -1.76625,0.0812 0,0.485 c 0.6325,0 0.71375,0 0.71375,0.40875 l 0,3.19625 -0.71375,0 z"
       style="fill:#000000;fill-opacity:1;fill-rule:nonzero;stroke:none"
       id="path3727" />
    <path
       inkscape:connector-curvature="0"
       d="m 364.04574,598.33525 24.99125,10.535"
       style="fill:none;stroke:#000000;stroke-width:0.83495998;stroke-linecap:butt;stroke-linejoin:miter;stroke-miterlimit:4;stroke-opacity:1;stroke-dasharray:none"
       id="path3729" />
    <path
       inkscape:connector-curvature="0"
       d="m 385.79699,605.31025 4.26375,3.98375 -5.825,-0.2725 c 1.26375,-0.755 1.89125,-2.25625 1.56125,-3.71125 z"
       style="fill:#000000;fill-opacity:1;fill-rule:evenodd;stroke:none"
       id="path3731" />
    <path
       inkscape:connector-curvature="0"
       d="m 364.58074,598.25275 -0.0788,27.125"
       style="fill:none;stroke:#000000;stroke-width:0.83495998;stroke-linecap:butt;stroke-linejoin:miter;stroke-miterlimit:4;stroke-opacity:1;stroke-dasharray:none"
       id="path3733" />
    <path
       inkscape:connector-curvature="0"
       d="m 366.53324,621.01525 -2.02625,5.4675 -1.99875,-5.48 c 1.1875,0.87625 2.81375,0.87625 4.025,0.0125 z"
       style="fill:#000000;fill-opacity:1;fill-rule:evenodd;stroke:none"
       id="path3735" />
    <path
       inkscape:connector-curvature="0"
       d="m 387.01574,614.81775 c 0.09,0.38 0.39125,0.7225 0.7425,0.86375 0.28875,0.12 0.485,0.005 0.615,-0.2025 0.1425,-0.24 0.24875,-0.71 0.24875,-0.72125 0,-0.09 -0.065,-0.11875 -0.0937,-0.13125 -0.09,-0.0362 -0.09,0.005 -0.1175,0.11 -0.115,0.42375 -0.27375,0.9175 -0.62375,0.775 -0.1725,-0.07 -0.26125,-0.20875 -0.26125,-0.48625 0,-0.17875 0.1025,-0.52875 0.16625,-0.8025 l 0.2375,-0.80375 c 0.0238,-0.10875 0.105,-0.39125 0.14125,-0.505 0.0412,-0.18 0.12,-0.46 0.12,-0.50875 0,-0.1475 -0.12,-0.27375 -0.2375,-0.31875 -0.0362,-0.0163 -0.26125,-0.0937 -0.325,0.15125 -0.15625,0.55 -0.5225,1.8625 -0.625,2.25 -0.0125,0.0325 -0.3375,0.5675 -0.95375,0.31875 -0.4275,-0.175 -0.50875,-0.5875 -0.50875,-0.88875 0,-0.46875 0.235,-1.02375 0.4425,-1.5125 0.1075,-0.22 0.14375,-0.3225 0.14375,-0.4775 0,-0.3675 -0.26125,-0.7875 -0.67625,-0.95375 -0.79625,-0.32625 -1.0975,0.76625 -1.0975,0.8325 0,0.0875 0.0775,0.12125 0.0937,0.125 0.09,0.0375 0.09,0.0125 0.13125,-0.10125 0.2075,-0.63125 0.53375,-0.81625 0.8475,-0.685 0.0775,0.0325 0.20875,0.0962 0.20875,0.3575 0,0.19625 -0.0937,0.40875 -0.14375,0.5025 -0.31375,0.70875 -0.485,1.14625 -0.485,1.5525 0,0.795 0.575,1.23625 1.01875,1.42 0.54625,0.22375 0.84875,-0.0338 0.99125,-0.16 z"
       style="fill:#000000;fill-opacity:1;fill-rule:nonzero;stroke:none"
       id="path3737" />
    <path
       inkscape:connector-curvature="0"
       d="m 371.23824,622.9965 c -0.12375,-0.44 -0.4125,-0.6575 -0.57875,-0.7175 -0.2375,-0.085 -0.42,0.045 -0.3725,0.22125 0.03,0.1 0.0863,0.16625 0.21625,0.2925 0.25875,0.23625 0.4325,0.48125 0.51125,0.77 0.0937,0.33875 0.015,1.96625 -1.09375,1.57375 -0.4975,-0.175 -0.79875,-0.53375 -0.9175,-0.9625 -0.1175,-0.44 -0.0125,-0.9325 0.09,-1.49875 0.0375,-0.11125 0.0488,-0.20875 0.009,-0.36 -0.0987,-0.35 -0.48125,-0.7625 -0.9625,-0.92875 -0.90125,-0.3225 -0.9375,0.72125 -0.92125,0.7825 0.0238,0.09 0.11375,0.12125 0.13,0.12625 0.10625,0.0362 0.0988,0.0125 0.11,-0.0975 0.0613,-0.705 0.41625,-0.75 0.70125,-0.64875 0.0738,0.0288 0.24125,0.0863 0.31,0.33875 0.0537,0.2 0.0125,0.39125 -0.0125,0.505 -0.1625,0.78375 -0.17875,1.105 -0.0813,1.45625 0.2375,0.86875 1.11375,1.2925 1.55,1.44625 1.60625,0.57125 1.42625,-1.88625 1.3125,-2.29875 z"
       style="fill:#000000;fill-opacity:1;fill-rule:nonzero;stroke:none"
       id="path3739" />
    <path
       inkscape:connector-curvature="0"
       d="m 366.34949,598.499 c 0,0.875 -0.71,1.585 -1.58625,1.585 -0.87625,0 -1.59,-0.71 -1.59,-1.585 0,-0.8775 0.71375,-1.58625 1.59,-1.58625 0.87625,0 1.58625,0.70875 1.58625,1.58625 z"
       style="fill:#808080;fill-opacity:1;fill-rule:nonzero;stroke:none"
       id="path3741" />
    <path
       inkscape:connector-curvature="0"
       d="m 366.34949,598.499 c 0,0.875 -0.71,1.585 -1.58625,1.585 -0.87625,0 -1.59,-0.71 -1.59,-1.585 0,-0.8775 0.71375,-1.58625 1.59,-1.58625 0.87625,0 1.58625,0.70875 1.58625,1.58625 z"
       style="fill:none;stroke:#000000;stroke-width:0.19047751;stroke-linecap:butt;stroke-linejoin:miter;stroke-miterlimit:4;stroke-opacity:1;stroke-dasharray:none"
       id="path3743" />
    <path
       inkscape:connector-curvature="0"
       d="m 611.50574,780.274 c 0,0 -87.125,66.41625 -207.0975,68.20625 -114.18375,1.705 -235.14625,-34.9875 -235.14625,-34.9875 l -0.36375,1.1975 c 0,0 121.045,36.75 235.51,35.04125 120.425,-1.7925 207.85125,-68.43875 207.85125,-68.43875 l -0.75375,-1.01875 z"
       style="fill:#008080;fill-opacity:1;fill-rule:nonzero;stroke:none"
       id="path3745" />
    <path
       inkscape:connector-curvature="0"
       d="m 174.47574,818.9015 -6.97875,-5.27 8.7325,-0.50625 c -1.77375,1.325 -2.475,3.66125 -1.75375,5.77625 z"
       style="fill:#008080;fill-opacity:1;fill-rule:evenodd;stroke:none"
       id="path3747" />
    <path
       inkscape:connector-curvature="0"
       d="m 174.47574,818.9015 -6.97875,-5.27 8.7325,-0.50625 c -1.77375,1.325 -2.475,3.66125 -1.75375,5.77625 z"
       style="fill:none;stroke:#008080;stroke-width:0.52184999;stroke-linecap:butt;stroke-linejoin:round;stroke-miterlimit:4;stroke-opacity:1;stroke-dasharray:none"
       id="path3749" />
    <path
       inkscape:connector-curvature="0"
       d="m 264.78824,555.829 c -3.54625,-0.1225 -7.29375,-0.025 -11.27125,0.39125 -16.0025,1.66 -32.24625,10.9875 -44.5175,19.85375 -12.2675,8.8675 -20.58375,17.3275 -20.58375,17.3275 l 0.88375,0.86 c 0,0 8.25125,-8.39375 20.43375,-17.19625 12.1775,-8.80125 28.2775,-17.975 43.88375,-19.59375 31.38125,-3.2575 49.03,12.36625 49.03,12.36625 l 0.83625,-0.93875 c 0,0 -13.895,-12.2275 -38.695,-13.07 z"
       style="fill:#008080;fill-opacity:1;fill-rule:nonzero;stroke:none"
       id="path3757" />
    <path
       inkscape:connector-curvature="0"
       d="m 195.61074,591.27775 -7.905,3.7425 3.59625,-7.97 c 0.35375,2.18125 2.09875,3.885 4.30875,4.2275 z"
       style="fill:#008080;fill-opacity:1;fill-rule:evenodd;stroke:none"
       id="path3759" />
    <path
       inkscape:connector-curvature="0"
       d="m 195.61074,591.27775 -7.905,3.7425 3.59625,-7.97 c 0.35375,2.18125 2.09875,3.885 4.30875,4.2275 z"
       style="fill:none;stroke:#008080;stroke-width:0.52184999;stroke-linecap:butt;stroke-linejoin:round;stroke-miterlimit:4;stroke-opacity:1;stroke-dasharray:none"
       id="path3761" />
    <g
       id="g3763"
       transform="matrix(1.25,0,0,-1.25,-15.184262,1071.4265)">
      <text
         transform="matrix(1,0,0,-1,306.025,235.143)"
         id="text3765">
        <tspan
           style="font-size:6.67967987px;font-variant:normal;writing-mode:lr-tb;fill:#008080;fill-opacity:1;fill-rule:nonzero;stroke:none;font-family:DroidSans-Identity;-inkscape-font-specification:DroidSans-Identity-H"
           x="0 3.6752791 5.4654331 7.1970229 11.043371 13.69582 17.555758 19.287233 22.859814 25.946548 28.211887 29.943365 33.803303 37.73856 39.47015 42.556885 46.129463 50.064724 52.330063 54.922356 58.464188 60.195663"
           y="0"
           sodipodi:role="line"
           id="tspan3767" />
      </text>
    </g>
    <g
       id="g15889"
       transform="matrix(0.43767871,0,0,0.43767871,376.37473,427.18846)">
      <g
         word-spacing="normal"
         letter-spacing="normal"
         font-size-adjust="none"
         font-stretch="normal"
         font-weight="normal"
         font-variant="normal"
         font-style="normal"
         stroke-miterlimit="10.433"
         xml:space="preserve"
         transform="matrix(1.0629921,0,0,-1.0629921,-186.02362,789.27165)"
         id="g15891"
         style="font-style:normal;font-variant:normal;font-weight:normal;font-stretch:normal;letter-spacing:normal;word-spacing:normal;text-anchor:start;fill:none;stroke:#000000;stroke-linecap:butt;stroke-linejoin:miter;stroke-miterlimit:10.43299961;stroke-opacity:1;stroke-dasharray:none;stroke-dashoffset:0"><path
           id="path15893"
           d="m 480.16,426.47 -4.18,9.92 c -0.16,0.4 -0.25,0.59 -0.25,0.65 0,0.29 0.84,1.24 2.93,1.44 0.5,0.05 1,0.1 1,0.95 0,0.59 -0.6,0.59 -0.75,0.59 h -11.85 c -0.3,0 -0.9,0 -0.9,-0.99 0,-0.55 0.5,-0.55 1.15,-0.55 2.99,0 3.28,-0.5 3.73,-1.6 l 5.88,-13.9 -10.51,-11.3 -0.65,-0.55 c -2.44,-2.64 -4.78,-3.43 -7.32,-3.59 -0.65,-0.04 -1.1,-0.04 -1.1,-0.99 0,-0.05 0,-0.55 0.65,-0.55 h 10.26 c 0.3,0 0.9,0 0.9,1 0,0.5 -0.5,0.54 -0.6,0.54 -0.44,0.05 -1.99,0.16 -1.99,1.55 0,0.8 0.75,1.59 1.35,2.24 l 5.07,5.38 4.49,4.88 5.03,-11.9 c 0.2,-0.55 0.25,-0.6 0.25,-0.7 0,-0.4 -0.95,-1.25 -2.89,-1.45 -0.55,-0.04 -1,-0.09 -1,-0.94 0,-0.6 0.55,-0.6 0.75,-0.6 h 11.81 c 0.35,0 0.94,0 0.94,0.95 0,0.59 -0.49,0.59 -0.89,0.59 -3.34,0.05 -3.44,0.2 -4.29,2.19 -1.94,4.64 -5.28,12.41 -6.42,15.4 3.38,3.48 8.62,9.41 10.21,10.81 1.44,1.19 3.33,2.39 6.33,2.54 0.64,0.05 1.09,0.05 1.09,0.99 0,0.05 0,0.55 -0.65,0.55 h -10.21 c -0.3,0 -0.94,0 -0.94,-0.99 0,-0.35 0.25,-0.5 0.59,-0.55 0.45,-0.05 2,-0.15 2,-1.55 0,-0.69 -0.55,-1.34 -0.95,-1.79 z"
           inkscape:connector-curvature="0"
           style="fill:#000000;stroke-width:0" /></g>    </g>
    <text
       xml:space="preserve"
       style="font-size:20px;font-style:normal;font-weight:normal;line-height:125%;letter-spacing:0px;word-spacing:0px;fill:#000000;fill-opacity:1;stroke:none;font-family:Sans"
       x="316.60529"
       y="759.21869"
       id="text3398"
       sodipodi:linespacing="125%"><tspan
         sodipodi:role="line"
         id="tspan3400"
         x="316.60529"
         y="759.21869">Image Plane</tspan></text>
    <text
       xml:space="preserve"
       style="font-size:20px;font-style:normal;font-weight:normal;line-height:125%;letter-spacing:0px;word-spacing:0px;fill:#000000;fill-opacity:1;stroke:none;font-family:Sans"
       x="305.17667"
       y="873.50439"
       id="text3402"
       sodipodi:linespacing="125%"><tspan
         sodipodi:role="line"
         id="tspan3404"
         x="305.17667"
         y="873.50439">Extrinsic Parameters</tspan></text>
    <text
       xml:space="preserve"
       style="font-size:20px;font-style:normal;font-weight:normal;line-height:125%;letter-spacing:0px;word-spacing:0px;fill:#000000;fill-opacity:1;stroke:none;font-family:Sans"
       x="35.890972"
       y="848.50439"
       id="text3406"
       sodipodi:linespacing="125%"><tspan
         sodipodi:role="line"
         id="tspan3408"
         x="35.890972"
         y="848.50439">Camera System</tspan></text>
    <text
       xml:space="preserve"
       style="font-size:20px;font-style:normal;font-weight:normal;line-height:125%;letter-spacing:0px;word-spacing:0px;fill:#000000;fill-opacity:1;stroke:none;font-family:Sans"
       x="582.31952"
       y="697.7901"
       id="text3410"
       sodipodi:linespacing="125%"><tspan
         sodipodi:role="line"
         id="tspan3412"
         x="582.31952"
         y="697.7901">World System</tspan></text>
    <text
       xml:space="preserve"
       style="font-size:20px;font-style:normal;font-weight:normal;line-height:125%;letter-spacing:0px;word-spacing:0px;fill:#000000;fill-opacity:1;stroke:none;font-family:Sans"
       x="88.748116"
       y="544.93298"
       id="text3414"
       sodipodi:linespacing="125%"><tspan
         sodipodi:role="line"
         id="tspan3416"
         x="88.748116"
         y="544.93298">Intrinsic Parameters</tspan></text>
    <text
       xml:space="preserve"
       style="font-size:20px;font-style:normal;font-weight:normal;line-height:125%;letter-spacing:0px;word-spacing:0px;fill:#000000;fill-opacity:1;stroke:none;font-family:Sans"
       x="439.46237"
       y="677.07587"
       id="text3418"
       sodipodi:linespacing="125%"><tspan
         sodipodi:role="line"
         id="tspan3420"
         x="439.46237"
         y="677.07587">Focal Plane</tspan></text>
  </g>
</svg>
